# This file uses meters as units for non-parametric coordinates.

mtllib leiste.mtl
g default
v 1812.413888 126.781708 -1535.758836
v 2312.413888 126.781708 -1535.758836
v 1812.413888 99.653793 -1590.129441
v 2312.413888 99.653793 -1590.129441
v 1812.413888 -0.346207 -1590.129441
v 2312.413888 -0.346207 -1590.129441
v 2312.413888 126.781708 -2136.488816
v 1812.413888 126.781708 -2136.488816
v 2312.413888 99.653793 -2082.118211
v 1812.413888 99.653793 -2082.118211
v 2312.413888 -0.346207 -2082.118211
v 1812.413888 -0.346207 -2082.118211
vt 0.500629 0.976544
vt 0.000000 0.976544
vt 0.000000 0.915705
vt 0.500629 0.915705
vt 0.000000 0.815580
vt 0.500629 0.815580
vt 0.000000 0.654615
vt 0.500629 0.654615
vt 0.500629 0.715454
vt 0.000000 0.715454
vt 0.500629 0.815580
vt -0.000000 0.815580
vn 0.000000 0.894805 -0.446458
vn 0.000000 0.894805 -0.446458
vn 0.000000 0.894805 -0.446458
vn 0.000000 0.894805 -0.446458
vn 0.000000 0.000000 -1.000000
vn 0.000000 0.000000 -1.000000
vn 0.000000 0.000000 -1.000000
vn 0.000000 0.000000 -1.000000
vn 0.000000 0.894805 0.446458
vn 0.000000 0.894805 0.446458
vn 0.000000 0.894805 0.446458
vn 0.000000 0.894805 0.446458
vn 0.000000 0.000000 1.000000
vn 0.000000 0.000000 1.000000
vn 0.000000 0.000000 1.000000
vn 0.000000 0.000000 1.000000
s off
g pCube136 details
usemtl initialShadingGroup
f 1/1/1 2/2/2 4/3/3 3/4/4
f 3/4/5 4/3/6 6/5/7 5/6/8
f 7/7/9 8/8/10 10/9/11 9/10/12
f 9/10/13 10/9/14 12/11/15 11/12/16
