# This file uses meters as units for non-parametric coordinates.

mtllib Lunge.mtl
g default
v 3262.128418 72.141068 -1221.674194
v 3283.914551 67.423401 -1225.945923
v 3267.090332 109.536842 -1221.674194
v 3283.914551 118.621086 -1225.945923
v 3267.090332 109.536842 -1241.614624
v 3283.914551 118.621086 -1237.342896
v 3262.128418 72.141068 -1237.740112
v 3283.914551 67.423401 -1233.468384
v 3298.072998 67.423401 -1225.945923
v 3319.859131 72.141068 -1221.674194
v 3298.072998 118.621086 -1225.945923
v 3314.897217 109.536842 -1221.674194
v 3298.072998 118.621086 -1237.342896
v 3314.897217 109.536842 -1241.614624
v 3298.072998 67.423401 -1233.468384
v 3319.859131 72.141068 -1237.740112
v 3308.823242 69.751312 -1223.838135
v 3308.823242 69.751312 -1238.697632
v 3307.231689 116.347580 -1242.572144
v 3307.231689 116.347580 -1223.838135
v 3272.375488 69.922119 -1223.683350
v 3272.375488 69.922119 -1238.852295
v 3274.146729 116.018669 -1242.726807
v 3274.146729 116.018669 -1223.683350
v 3264.386719 89.160706 -1221.674194
v 3273.181641 90.901672 -1223.683350
v 3283.914551 90.724594 -1225.945923
v 3283.914551 90.724594 -1237.342896
v 3273.181641 90.901672 -1242.726807
v 3264.386719 89.160706 -1241.614624
v 3298.072998 90.653839 -1225.945923
v 3308.101074 90.893906 -1223.838135
v 3317.607666 89.109024 -1221.674194
v 3317.607666 89.109024 -1241.614624
v 3308.101074 90.893906 -1242.572144
v 3298.072998 90.653839 -1237.342896
vt 0.112159 0.827334
vt 0.263854 0.846677
vt 0.253100 0.915053
vt 0.079950 0.881694
vt 0.118871 0.615635
vt 0.102246 0.545847
vt 0.279711 0.543147
vt 0.275579 0.617687
vt 0.394217 0.862848
vt 0.408392 0.625441
vt 0.430104 0.547013
vt 0.397307 0.938419
vt 0.287345 0.671135
vt 0.283695 0.793305
vt 0.155152 0.786535
vt 0.160278 0.660397
vt 0.884249 0.819055
vt 0.730022 0.843364
vt 0.707249 0.785947
vt 0.837650 0.775602
vt 0.868894 0.598158
vt 0.826862 0.648267
vt 0.700558 0.663850
vt 0.710314 0.605475
vt 0.598552 0.863754
vt 0.576284 0.616659
vt 0.594648 0.687897
vt 0.600023 0.790900
vt 0.755990 0.977244
vt 0.741292 0.907315
vt 0.914772 0.869770
vt 0.881186 0.531445
vt 0.606701 0.981002
vt 0.597449 0.934396
vt 0.393691 0.692256
vt 0.391064 0.795411
vt 0.703495 0.535176
vt 0.550712 0.942183
vt 0.553471 0.543480
vt 0.240058 0.985112
vt 0.444034 0.945003
vt 0.389240 0.985106
vt 0.008090 0.777079
vt 0.066564 0.951669
vt 0.012330 0.851485
vt 0.488118 0.876322
vt 0.986421 0.768342
vt 0.950080 0.712391
vt 0.506570 0.879264
vt 0.500651 0.808074
vt 0.982120 0.838622
vt 0.929867 0.939815
vt 0.490550 0.810140
vt 0.042519 0.725204
vn 0.224714 -0.007586 0.974395
vn 0.218441 -0.009924 0.975800
vn 0.207671 -0.003782 0.978191
vn 0.215982 -0.003934 0.976389
vn -0.531864 0.846830 0.000000
vn -0.529679 0.848198 0.000000
vn -0.257451 0.966291 0.000000
vn -0.257451 0.966291 0.000000
vn 0.441562 -0.085068 -0.893189
vn 0.229911 -0.083081 -0.969659
vn 0.355694 -0.004623 -0.934591
vn 0.465763 -0.008478 -0.884869
vn -0.211636 -0.977348 0.000000
vn -0.211637 -0.977348 0.000000
vn -0.211638 -0.977348 0.000000
vn -0.211638 -0.977348 0.000000
vn 1.000000 0.000000 0.000000
vn 1.000000 0.000000 0.000000
vn 1.000000 0.000000 0.000000
vn 1.000000 0.000000 0.000000
vn -0.991312 0.131534 0.000000
vn -0.991312 0.131535 0.000000
vn -0.991312 0.131530 0.000000
vn -0.991312 0.131530 0.000000
vn -0.224742 -0.007604 0.974389
vn -0.218466 -0.009921 0.975794
vn -0.224721 -0.017534 0.974265
vn -0.253643 -0.019791 0.967095
vn 0.533921 0.845534 0.000000
vn 0.528972 0.848639 0.000000
vn 0.664200 0.747555 0.000000
vn 0.664200 0.747555 0.000000
vn 0.104343 -0.114586 -0.987918
vn -0.229804 -0.082744 -0.969713
vn -0.355914 -0.004117 -0.934510
vn 0.115267 0.008994 -0.993294
vn 0.211638 -0.977348 0.000000
vn 0.211638 -0.977348 0.000000
vn 0.211637 -0.977348 0.000000
vn 0.211637 -0.977348 0.000000
vn 0.991312 0.131530 0.000000
vn 0.991312 0.131530 0.000000
vn 0.991312 0.131530 0.000000
vn 0.991312 0.131530 0.000000
vn -1.000000 -0.000002 0.000000
vn -1.000000 -0.000002 0.000000
vn -1.000000 0.000000 0.000000
vn -1.000000 0.000000 0.000000
vn 0.211641 -0.977348 0.000000
vn 0.211641 -0.977348 0.000000
vn -0.479228 -0.007793 -0.877656
vn -0.455457 -0.083700 -0.886315
vn 0.240927 0.970543 0.000000
vn 0.240927 0.970543 0.000000
vn -0.207021 -0.003369 0.978331
vn -0.214949 -0.003495 0.976619
vn -0.211635 -0.977349 0.000000
vn -0.211635 -0.977349 0.000000
vn -0.144901 0.011686 -0.989377
vn -0.129213 -0.113602 -0.985088
vn -0.676468 0.736472 0.000000
vn -0.676468 0.736472 0.000000
vn 0.225486 -0.018184 0.974077
vn 0.255722 -0.020622 0.966530
vn 0.206052 -0.016618 0.978400
vn 0.201426 -0.008442 0.979467
vn 0.198688 -0.003618 0.980056
vn 1.000000 0.000000 0.000000
vn 1.000000 0.000000 0.000000
vn 0.236859 -0.178878 -0.954935
vn 0.413289 -0.164262 -0.895662
vn -0.118622 -0.189213 -0.974745
vn -0.991311 0.131541 0.000000
vn -0.991311 0.131541 0.000000
vn -0.198453 -0.003232 0.980105
vn -0.201380 -0.008417 0.979477
vn -0.205675 -0.016048 0.978489
vn 0.991312 0.131529 0.000000
vn 0.991312 0.131529 0.000000
vn -0.238392 -0.179164 -0.954500
vn 0.096684 -0.191069 -0.976803
vn -0.427568 -0.162270 -0.889300
vn -1.000000 -0.000004 0.000000
vn -1.000000 -0.000004 0.000000
s 1
g pCube3 Lunge
usemtl initialShadingGroup
f 24/1/1 26/2/2 27/3/3 4/4/4
s 2
f 23/43/5 24/1/6 4/4/7 6/45/8
s 3
f 28/7/9 29/8/10 23/5/11 6/6/12
s 4
f 21/9/13 22/46/14 8/41/15 2/12/16
s 5
f 27/3/17 28/40/18 6/44/19 4/4/20
s 6
f 30/13/21 25/14/22 3/15/23 5/16/24
s 7
f 20/17/25 32/18/26 33/19/27 12/20/28
s 8
f 19/47/29 20/17/30 12/20/31 14/48/32
s 9
f 34/23/33 35/24/34 19/21/35 14/22/36
s 10
f 17/25/37 18/49/38 16/50/39 10/28/40
s 11
f 33/19/41 34/23/42 14/22/43 12/20/44
s 12
f 36/29/45 31/30/46 11/31/47 13/52/48
s 10
f 15/38/49 18/49/38 17/25/37 9/34/50
s 9
f 13/32/51 19/21/35 35/24/34 36/37/52
s 8
f 11/31/53 20/17/30 19/47/29 13/51/54
s 7
f 31/30/55 32/18/26 20/17/25 11/31/56
s 4
f 7/53/57 22/46/14 21/9/13 1/36/58
s 3
f 5/16/59 23/5/11 29/8/10 30/13/60
s 2
f 3/15/61 24/1/6 23/43/5 5/54/62
s 1
f 25/14/63 26/2/2 24/1/1 3/15/64
f 1/36/65 21/9/66 26/2/2 25/14/63
f 27/3/3 26/2/2 21/9/66 2/12/67
s 5
f 2/12/68 8/42/69 28/40/18 27/3/17
s 3
f 22/10/70 29/8/10 28/7/9 8/11/71
f 30/13/60 29/8/10 22/10/70 7/35/72
s 6
f 7/35/73 1/36/74 25/14/22 30/13/21
s 7
f 9/34/75 17/25/76 32/18/26 31/30/55
f 33/19/27 32/18/26 17/25/76 10/28/77
s 11
f 10/28/78 16/27/79 34/23/42 33/19/41
s 9
f 18/26/80 35/24/34 34/23/33 16/27/81
f 36/37/52 35/24/34 18/26/80 15/39/82
s 12
f 15/33/83 9/34/84 31/30/46 36/29/45
g default
v 3293.405706 107.525138 -1233.771974
v 3290.800015 107.525138 -1234.850986
v 3288.194324 107.525138 -1233.771974
v 3287.115025 107.525138 -1231.166139
v 3288.194324 107.525138 -1228.560304
v 3290.800015 107.525138 -1227.481293
v 3293.405706 107.525138 -1228.560304
v 3294.485293 107.525138 -1231.166139
v 3293.405706 133.701856 -1233.771974
v 3290.800015 133.701856 -1234.850986
v 3288.194324 133.701856 -1233.771974
v 3287.115025 133.701856 -1231.166139
v 3288.194324 133.701856 -1228.560304
v 3290.800015 133.701856 -1227.481293
v 3293.405706 133.701856 -1228.560304
v 3294.485293 133.701856 -1231.166139
v 3290.800015 133.701856 -1231.166139
vt 0.220970 0.030990
vt 0.272167 0.028655
vt 0.277013 0.449582
vt 0.244321 0.451926
vt 0.323569 0.028737
vt 0.309522 0.452664
vt 0.374726 0.031189
vt 0.342761 0.461419
vt 0.425204 0.035494
vt 0.377366 0.476782
vt 0.474587 0.040641
vt 0.138631 0.502545
vt 0.121180 0.040793
vt 0.175128 0.476253
vt 0.170459 0.035349
vt 0.210540 0.460326
vt 0.276689 0.513317
vt 0.413269 0.500580
vt 0.073823 0.045452
vn 0.382592 0.000000 -0.923917
vn 0.382592 0.000000 -0.923917
vn 0.382592 0.000000 -0.923917
vn 0.382592 0.000000 -0.923917
vn -0.382592 0.000000 -0.923917
vn -0.382592 0.000000 -0.923917
vn -0.382592 0.000000 -0.923917
vn -0.382592 0.000000 -0.923917
vn -0.923889 0.000000 -0.382661
vn -0.923889 0.000000 -0.382661
vn -0.923889 0.000000 -0.382661
vn -0.923889 0.000000 -0.382661
vn -0.923889 0.000000 0.382661
vn -0.923889 0.000000 0.382661
vn -0.923889 0.000000 0.382661
vn -0.923889 0.000000 0.382661
vn -0.382592 0.000000 0.923917
vn -0.382592 0.000000 0.923917
vn -0.382592 0.000000 0.923917
vn -0.382592 0.000000 0.923917
vn 0.382592 0.000000 0.923917
vn 0.382592 0.000000 0.923917
vn 0.382592 0.000000 0.923917
vn 0.382592 0.000000 0.923917
vn 0.923853 0.000000 0.382748
vn 0.923853 0.000000 0.382748
vn 0.923853 0.000000 0.382748
vn 0.923853 0.000000 0.382748
vn 0.923853 0.000000 -0.382748
vn 0.923853 0.000000 -0.382748
vn 0.923853 0.000000 -0.382748
vn 0.923853 0.000000 -0.382748
vn 0.000000 1.000000 0.000000
vn 0.000000 1.000000 0.000000
vn 0.000000 1.000000 -0.000000
vn 0.000000 1.000000 0.000000
vn 0.000000 1.000000 -0.000001
vn 0.000000 1.000000 -0.000001
vn 0.000000 1.000000 0.000000
vn 0.000000 1.000000 0.000000
vn 0.000000 1.000000 0.000000
s off
g Lunge pCylinder1
usemtl initialShadingGroup
f 37/55/85 38/56/86 46/57/87 45/58/88
f 38/56/89 39/59/90 47/60/91 46/57/92
f 39/59/93 40/61/94 48/62/95 47/60/96
f 40/61/97 41/63/98 49/64/99 48/62/100
f 41/63/101 42/65/102 50/72/103 49/64/104
f 42/73/105 43/67/106 51/68/107 50/66/108
f 43/67/109 44/69/110 52/70/111 51/68/112
f 44/69/113 37/55/114 45/58/115 52/70/116
s 1
f 45/58/117 46/57/118 53/71/119
f 46/57/118 47/60/120 53/71/119
f 47/60/120 48/62/121 53/71/119
f 48/62/121 49/64/122 53/71/119
f 49/64/122 50/72/123 53/71/119
f 50/66/123 51/68/124 53/71/119
f 51/68/124 52/70/125 53/71/119
f 52/70/125 45/58/117 53/71/119
g default
v 3270.998763 99.528483 -1233.771974
v 3270.998763 102.134165 -1234.851130
v 3270.998763 104.739856 -1233.771974
v 3270.998763 105.819155 -1231.166139
v 3270.998763 104.739856 -1228.560448
v 3270.998763 102.134165 -1227.481293
v 3270.998763 99.528483 -1228.560448
v 3270.998763 98.449183 -1231.166139
v 3310.601180 99.528483 -1233.771974
v 3310.601180 102.134165 -1234.851130
v 3310.601180 104.739856 -1233.771974
v 3310.601180 105.819155 -1231.166139
v 3310.601180 104.739856 -1228.560448
v 3310.601180 102.134165 -1227.481293
v 3310.601180 99.528483 -1228.560448
v 3310.601180 98.449183 -1231.166139
v 3290.799827 107.652761 -1234.851130
v 3290.799827 105.047079 -1233.771974
v 3290.799827 103.967771 -1231.166139
v 3290.799827 105.047079 -1228.560448
v 3290.799827 107.652761 -1227.481293
v 3290.799827 110.258443 -1228.560448
v 3290.799827 111.337752 -1231.166139
v 3290.799827 110.258443 -1233.771974
vt 0.781718 0.015839
vt 0.811992 0.023205
vt 0.810644 0.252463
vt 0.779421 0.252012
vt 0.842855 0.030222
vt 0.841296 0.252906
vt 0.875121 0.032918
vt 0.872404 0.253356
vt 0.907450 0.030175
vt 0.903505 0.253805
vt 0.938495 0.023006
vt 0.934133 0.254248
vt 0.719892 0.015459
vt 0.714452 0.251073
vt 0.750861 0.012551
vt 0.746933 0.251542
vt 0.805366 0.481667
vt 0.774892 0.488156
vt 0.743953 0.490551
vt 0.713081 0.486749
vt 0.682767 0.478861
vt 0.900986 0.477459
vt 0.868750 0.473783
vt 0.836419 0.475545
vt 0.683234 0.250622
vt 0.931811 0.485522
vt 0.689362 0.022468
vn 0.106040 -0.380480 -0.918690
vn 0.106040 -0.380480 -0.918690
vn -0.000000 -0.382637 -0.923899
vn 0.000000 -0.382637 -0.923899
vn -0.106040 0.380479 -0.918690
vn -0.106040 0.380479 -0.918690
vn 0.000000 0.382636 -0.923899
vn -0.000000 0.382636 -0.923899
vn -0.249356 0.894704 -0.370575
vn -0.249356 0.894704 -0.370575
vn 0.000000 0.923888 -0.382663
vn -0.000000 0.923888 -0.382663
vn -0.249354 0.894697 0.370593
vn -0.249354 0.894697 0.370593
vn -0.000000 0.923881 0.382681
vn 0.000000 0.923881 0.382681
vn -0.106040 0.380479 0.918690
vn -0.106040 0.380479 0.918690
vn -0.000000 0.382636 0.923899
vn 0.000000 0.382636 0.923899
vn 0.106040 -0.380480 0.918690
vn 0.106040 -0.380480 0.918690
vn 0.000000 -0.382637 0.923899
vn -0.000000 -0.382637 0.923899
vn 0.249354 -0.894697 0.370593
vn 0.249354 -0.894697 0.370593
vn 0.000000 -0.923881 0.382681
vn -0.000000 -0.923881 0.382681
vn 0.249356 -0.894704 -0.370575
vn 0.249356 -0.894704 -0.370575
vn -0.000000 -0.923888 -0.382663
vn 0.000000 -0.923888 -0.382663
vn -0.106039 -0.380480 -0.918690
vn -0.106039 -0.380480 -0.918690
vn -0.249352 -0.894705 -0.370575
vn -0.249352 -0.894705 -0.370576
vn -0.249350 -0.894698 0.370593
vn -0.249350 -0.894698 0.370593
vn -0.106039 -0.380480 0.918690
vn -0.106039 -0.380480 0.918690
vn 0.106039 0.380479 0.918690
vn 0.106039 0.380479 0.918690
vn 0.249350 0.894698 0.370593
vn 0.249350 0.894698 0.370593
vn 0.249352 0.894705 -0.370575
vn 0.249352 0.894705 -0.370576
vn 0.106039 0.380479 -0.918690
vn 0.106039 0.380479 -0.918690
s 1
g Lunge pCylinder2
usemtl initialShadingGroup
f 54/74/126 55/75/127 70/76/128 71/77/129
s 2
f 55/75/130 56/78/131 77/79/132 70/76/133
s 3
f 56/78/134 57/80/135 76/81/136 77/79/137
s 4
f 57/80/138 58/82/139 75/83/140 76/81/141
s 5
f 58/82/142 59/84/143 74/85/144 75/83/145
s 6
f 59/100/146 60/86/147 73/87/148 74/98/149
s 7
f 60/86/150 61/88/151 72/89/152 73/87/153
s 8
f 61/88/154 54/74/155 71/77/156 72/89/157
s 1
f 71/77/129 70/76/128 63/90/158 62/91/159
s 8
f 72/89/157 71/77/156 62/91/160 69/92/161
s 7
f 73/87/153 72/89/152 69/92/162 68/93/163
s 6
f 74/98/149 73/87/148 68/93/164 67/94/165
s 5
f 75/83/145 74/85/144 67/99/166 66/95/167
s 4
f 76/81/141 75/83/140 66/95/168 65/96/169
s 3
f 77/79/137 76/81/136 65/96/170 64/97/171
s 2
f 70/76/133 77/79/132 64/97/172 63/90/173
