# This file uses centimeters as units for non-parametric coordinates.

mtllib Vent.mtl
g default
v 92.163971 263.342133 28.040794
v 92.163971 140.154068 28.040794
v 92.163971 263.342133 37.250984
v 92.163971 140.154068 37.250984
v 101.374153 263.342133 37.250984
v 101.374153 140.154068 37.250984
v 101.374153 263.342133 28.040794
v 101.374153 140.154068 28.040794
v 94.752220 258.831635 29.196199
v -94.752220 258.831635 29.196199
v 94.752220 254.226532 37.172459
v -94.752220 254.226532 37.172459
v 94.752220 252.361313 36.095573
v -94.752220 252.361313 36.095573
v 94.752220 256.966400 28.119312
v -94.752220 256.966400 28.119312
v -101.374153 263.342133 28.040794
v -101.374153 140.154068 28.040794
v -101.374153 263.342133 37.250984
v -101.374153 140.154068 37.250984
v -92.163963 263.342133 37.250984
v -92.163963 140.154068 37.250984
v -92.163963 263.342133 28.040794
v -92.163963 140.154068 28.040794
v 94.752220 160.140228 29.196199
v -94.752220 160.140228 29.196199
v 94.752220 155.535126 37.172459
v -94.752220 155.535126 37.172459
v 94.752220 153.669907 36.095573
v -94.752220 153.669907 36.095573
v 94.752220 158.274994 28.119312
v -94.752220 158.274994 28.119312
v 94.752220 170.009369 29.196199
v -94.752220 170.009369 29.196199
v 94.752220 165.404266 37.172459
v -94.752220 165.404266 37.172459
v 94.752220 163.539047 36.095573
v -94.752220 163.539047 36.095573
v 94.752220 168.144135 28.119312
v -94.752220 168.144135 28.119312
v 94.752220 150.271088 29.196199
v -94.752220 150.271088 29.196199
v 94.752220 145.665985 37.172459
v -94.752220 145.665985 37.172459
v 94.752220 143.800766 36.095573
v -94.752220 143.800766 36.095573
v 94.752220 148.405853 28.119312
v -94.752220 148.405853 28.119312
v 94.752220 179.878510 29.196199
v -94.752220 179.878510 29.196199
v 94.752220 175.273407 37.172459
v -94.752220 175.273407 37.172459
v 94.752220 173.408188 36.095573
v -94.752220 173.408188 36.095573
v 94.752220 178.013275 28.119312
v -94.752220 178.013275 28.119312
v 94.752220 189.747650 29.196199
v -94.752220 189.747650 29.196199
v 94.752220 185.142548 37.172459
v -94.752220 185.142548 37.172459
v 94.752220 183.277328 36.095573
v -94.752220 183.277328 36.095573
v 94.752220 187.882416 28.119312
v -94.752220 187.882416 28.119312
v 94.752220 199.616791 29.196199
v -94.752220 199.616791 29.196199
v 94.752220 195.011688 37.172459
v -94.752220 195.011688 37.172459
v 94.752220 193.146469 36.095573
v -94.752220 193.146469 36.095573
v 94.752220 197.751556 28.119312
v -94.752220 197.751556 28.119312
v 94.752220 229.224213 29.196199
v -94.752220 229.224213 29.196199
v 94.752220 224.619110 37.172459
v -94.752220 224.619110 37.172459
v 94.752220 222.753891 36.095573
v -94.752220 222.753891 36.095573
v 94.752220 227.358978 28.119312
v -94.752220 227.358978 28.119312
v 94.752220 239.093353 29.196199
v -94.752220 239.093353 29.196199
v 94.752220 234.488251 37.172459
v -94.752220 234.488251 37.172459
v 94.752220 232.623032 36.095573
v -94.752220 232.623032 36.095573
v 94.752220 237.228119 28.119312
v -94.752220 237.228119 28.119312
v 94.752220 248.962494 29.196199
v -94.752220 248.962494 29.196199
v 94.752220 244.357391 37.172459
v -94.752220 244.357391 37.172459
v 94.752220 242.492172 36.095573
v -94.752220 242.492172 36.095573
v 94.752220 247.097260 28.119312
v -94.752220 247.097260 28.119312
v 94.752220 209.485931 29.196199
v -94.752220 209.485931 29.196199
v 94.752220 204.880829 37.172459
v -94.752220 204.880829 37.172459
v 94.752220 203.015610 36.095573
v -94.752220 203.015610 36.095573
v 94.752220 207.620697 28.119312
v -94.752220 207.620697 28.119312
v 94.752220 219.355072 29.196199
v -94.752220 219.355072 29.196199
v 94.752220 214.749969 37.172459
v -94.752220 214.749969 37.172459
v 94.752220 212.884750 36.095573
v -94.752220 212.884750 36.095573
v 94.752220 217.489838 28.119312
v -94.752220 217.489838 28.119312
v 101.374161 140.305832 28.040794
v -101.374161 140.305832 28.040794
v 101.374161 140.305832 37.250984
v -101.374161 140.305832 37.250984
v 101.374161 131.095642 37.250984
v -101.374161 131.095642 37.250984
v 101.374161 131.095642 28.040794
v -101.374161 131.095642 28.040794
v 101.374161 272.378174 28.040794
v -101.374161 272.378174 28.040794
v 101.374161 272.378174 37.250984
v -101.374161 272.378174 37.250984
v 101.374161 263.167969 37.250984
v -101.374161 263.167969 37.250984
v 101.374161 263.167969 28.040794
v -101.374161 263.167969 28.040794
vt 0.621491 0.063098
vt 0.624035 0.924023
vt 0.559667 0.924195
vt 0.557122 0.063288
vt 0.495259 0.924326
vt 0.494315 0.063428
vt 0.430892 0.924414
vt 0.429962 0.063505
vt 0.559962 0.989048
vt 0.495222 0.989178
vt 0.505010 0.010908
vt 0.557536 0.021578
vt 0.298799 0.986650
vt 0.307700 0.019125
vt 0.354706 0.019435
vt 0.345784 0.987065
vt 0.365589 0.019540
vt 0.363002 0.984889
vt 0.412558 0.019810
vt 0.409902 0.984997
vt 0.822382 0.063099
vt 0.824924 0.924037
vt 0.760553 0.924203
vt 0.758009 0.063288
vt 0.696145 0.924333
vt 0.695214 0.063439
vt 0.631779 0.924429
vt 0.630839 0.063499
vt 0.760847 0.989060
vt 0.696111 0.989190
vt 0.705896 0.010906
vt 0.758423 0.021578
vt 0.298799 0.986650
vt 0.307700 0.019125
vt 0.354705 0.019435
vt 0.345783 0.987066
vt 0.365589 0.019540
vt 0.363001 0.984890
vt 0.412558 0.019810
vt 0.409902 0.984997
vt 0.298799 0.986650
vt 0.307700 0.019125
vt 0.354705 0.019435
vt 0.345783 0.987066
vt 0.365589 0.019540
vt 0.363001 0.984890
vt 0.412558 0.019810
vt 0.409902 0.984997
vt 0.298799 0.986650
vt 0.307700 0.019125
vt 0.354705 0.019435
vt 0.345783 0.987066
vt 0.365589 0.019540
vt 0.363001 0.984890
vt 0.412558 0.019810
vt 0.409902 0.984997
vt 0.298799 0.986650
vt 0.307700 0.019125
vt 0.354705 0.019435
vt 0.345783 0.987066
vt 0.365589 0.019540
vt 0.363001 0.984890
vt 0.412558 0.019810
vt 0.409902 0.984997
vt 0.298799 0.986650
vt 0.307700 0.019125
vt 0.354705 0.019435
vt 0.345783 0.987066
vt 0.365589 0.019540
vt 0.363001 0.984890
vt 0.412558 0.019810
vt 0.409902 0.984997
vt 0.298799 0.986650
vt 0.307700 0.019125
vt 0.354705 0.019435
vt 0.345783 0.987066
vt 0.365589 0.019540
vt 0.363001 0.984890
vt 0.412558 0.019810
vt 0.409902 0.984997
vt 0.298799 0.986650
vt 0.307700 0.019125
vt 0.354705 0.019435
vt 0.345783 0.987066
vt 0.365589 0.019540
vt 0.363001 0.984890
vt 0.412558 0.019810
vt 0.409902 0.984997
vt 0.298799 0.986650
vt 0.307700 0.019125
vt 0.354705 0.019435
vt 0.345783 0.987066
vt 0.365589 0.019540
vt 0.363001 0.984890
vt 0.412558 0.019810
vt 0.409902 0.984997
vt 0.298799 0.986650
vt 0.307700 0.019125
vt 0.354705 0.019435
vt 0.345783 0.987066
vt 0.365589 0.019540
vt 0.363001 0.984890
vt 0.412558 0.019810
vt 0.409902 0.984997
vt 0.298799 0.986650
vt 0.307700 0.019125
vt 0.354705 0.019435
vt 0.345783 0.987066
vt 0.365589 0.019540
vt 0.363001 0.984890
vt 0.412558 0.019810
vt 0.409902 0.984997
vt 0.298799 0.986650
vt 0.307700 0.019125
vt 0.354705 0.019435
vt 0.345783 0.987066
vt 0.365589 0.019540
vt 0.363001 0.984890
vt 0.412558 0.019810
vt 0.409902 0.984997
vt 0.145184 0.051315
vt 0.135209 0.953589
vt 0.094220 0.953139
vt 0.104197 0.050861
vt 0.053233 0.952688
vt 0.063120 0.050410
vt 0.012248 0.952236
vt 0.022132 0.049961
vt 0.093762 0.994101
vt 0.052791 0.993650
vt 0.062581 0.008365
vt 0.104625 0.007808
vt 0.288957 0.051315
vt 0.278982 0.953589
vt 0.237993 0.953139
vt 0.247970 0.050861
vt 0.197006 0.952688
vt 0.206893 0.050410
vt 0.156021 0.952236
vt 0.165905 0.049961
vt 0.237535 0.994101
vt 0.196564 0.993650
vt 0.206354 0.008365
vt 0.248398 0.007808
vn -1.000000 0.000000 0.000000
vn -1.000000 0.000000 0.000000
vn -1.000000 0.000000 0.000000
vn -1.000000 0.000000 0.000000
vn 0.000000 0.000000 1.000000
vn 0.000000 0.000000 1.000000
vn 0.000000 0.000000 1.000000
vn 0.000000 0.000000 1.000000
vn 1.000000 0.000000 0.000000
vn 1.000000 0.000000 0.000000
vn 1.000000 0.000000 0.000000
vn 1.000000 0.000000 0.000000
vn 0.000000 -1.000000 0.000000
vn 0.000000 -1.000000 0.000000
vn 0.000000 -1.000000 0.000000
vn 0.000000 -1.000000 0.000000
vn 0.000000 1.000000 0.000000
vn 0.000000 1.000000 0.000000
vn 0.000000 1.000000 0.000000
vn 0.000000 1.000000 0.000000
vn 0.000000 0.866026 0.499999
vn 0.000000 0.866026 0.499999
vn 0.000000 0.866026 0.499999
vn 0.000000 0.866026 0.499999
vn 0.000000 -0.499999 0.866026
vn 0.000000 -0.499999 0.866026
vn 0.000000 -0.499999 0.866026
vn 0.000000 -0.499999 0.866026
vn 0.000000 -0.866025 -0.500000
vn 0.000000 -0.866025 -0.500000
vn 0.000000 -0.866025 -0.500000
vn 0.000000 -0.866025 -0.500000
vn -1.000000 0.000000 0.000000
vn -1.000000 0.000000 0.000000
vn -1.000000 0.000000 0.000000
vn -1.000000 0.000000 0.000000
vn 0.000000 0.000000 1.000000
vn 0.000000 0.000000 1.000000
vn 0.000000 0.000000 1.000000
vn 0.000000 0.000000 1.000000
vn 1.000000 0.000000 0.000000
vn 1.000000 0.000000 0.000000
vn 1.000000 0.000000 0.000000
vn 1.000000 0.000000 0.000000
vn 0.000000 -1.000000 0.000000
vn 0.000000 -1.000000 0.000000
vn 0.000000 -1.000000 0.000000
vn 0.000000 -1.000000 0.000000
vn 0.000000 1.000000 0.000000
vn 0.000000 1.000000 0.000000
vn 0.000000 1.000000 0.000000
vn 0.000000 1.000000 0.000000
vn 0.000000 0.866025 0.500001
vn 0.000000 0.866025 0.500001
vn 0.000000 0.866025 0.500001
vn 0.000000 0.866025 0.500001
vn 0.000000 -0.499999 0.866026
vn 0.000000 -0.499999 0.866026
vn 0.000000 -0.499999 0.866026
vn 0.000000 -0.499999 0.866026
vn 0.000000 -0.866025 -0.500000
vn 0.000000 -0.866025 -0.500000
vn 0.000000 -0.866025 -0.500000
vn 0.000000 -0.866025 -0.500000
vn 0.000000 0.866025 0.500001
vn 0.000000 0.866025 0.500001
vn 0.000000 0.866025 0.500001
vn 0.000000 0.866025 0.500001
vn 0.000000 -0.499999 0.866026
vn 0.000000 -0.499999 0.866026
vn 0.000000 -0.499999 0.866026
vn 0.000000 -0.499999 0.866026
vn 0.000000 -0.866025 -0.500000
vn 0.000000 -0.866025 -0.500000
vn 0.000000 -0.866025 -0.500000
vn 0.000000 -0.866025 -0.500000
vn 0.000000 0.866025 0.500001
vn 0.000000 0.866025 0.500001
vn 0.000000 0.866025 0.500001
vn 0.000000 0.866025 0.500001
vn 0.000000 -0.499999 0.866026
vn 0.000000 -0.499999 0.866026
vn 0.000000 -0.499999 0.866026
vn 0.000000 -0.499999 0.866026
vn 0.000000 -0.866025 -0.500000
vn 0.000000 -0.866025 -0.500000
vn 0.000000 -0.866025 -0.500000
vn 0.000000 -0.866025 -0.500000
vn 0.000000 0.866025 0.500001
vn 0.000000 0.866025 0.500001
vn 0.000000 0.866025 0.500001
vn 0.000000 0.866025 0.500001
vn 0.000000 -0.499999 0.866026
vn 0.000000 -0.499999 0.866026
vn 0.000000 -0.499999 0.866026
vn 0.000000 -0.499999 0.866026
vn 0.000000 -0.866025 -0.500000
vn 0.000000 -0.866025 -0.500000
vn 0.000000 -0.866025 -0.500000
vn 0.000000 -0.866025 -0.500000
vn 0.000000 0.866025 0.500001
vn 0.000000 0.866025 0.500001
vn 0.000000 0.866025 0.500001
vn 0.000000 0.866025 0.500001
vn 0.000000 -0.499999 0.866026
vn 0.000000 -0.499999 0.866026
vn 0.000000 -0.499999 0.866026
vn 0.000000 -0.499999 0.866026
vn 0.000000 -0.866025 -0.500000
vn 0.000000 -0.866025 -0.500000
vn 0.000000 -0.866025 -0.500000
vn 0.000000 -0.866025 -0.500000
vn 0.000000 0.866025 0.500001
vn 0.000000 0.866025 0.500001
vn 0.000000 0.866025 0.500001
vn 0.000000 0.866025 0.500001
vn 0.000000 -0.499999 0.866026
vn 0.000000 -0.499999 0.866026
vn 0.000000 -0.499999 0.866026
vn 0.000000 -0.499999 0.866026
vn 0.000000 -0.866025 -0.500000
vn 0.000000 -0.866025 -0.500000
vn 0.000000 -0.866025 -0.500000
vn 0.000000 -0.866025 -0.500000
vn 0.000000 0.866025 0.500001
vn 0.000000 0.866025 0.500001
vn 0.000000 0.866025 0.500001
vn 0.000000 0.866025 0.500001
vn 0.000000 -0.499999 0.866026
vn 0.000000 -0.499999 0.866026
vn 0.000000 -0.499999 0.866026
vn 0.000000 -0.499999 0.866026
vn 0.000000 -0.866025 -0.500000
vn 0.000000 -0.866025 -0.500000
vn 0.000000 -0.866025 -0.500000
vn 0.000000 -0.866025 -0.500000
vn 0.000000 0.866025 0.500001
vn 0.000000 0.866025 0.500001
vn 0.000000 0.866025 0.500001
vn 0.000000 0.866025 0.500001
vn 0.000000 -0.499999 0.866026
vn 0.000000 -0.499999 0.866026
vn 0.000000 -0.499999 0.866026
vn 0.000000 -0.499999 0.866026
vn 0.000000 -0.866025 -0.500000
vn 0.000000 -0.866025 -0.500000
vn 0.000000 -0.866025 -0.500000
vn 0.000000 -0.866025 -0.500000
vn 0.000000 0.866025 0.500001
vn 0.000000 0.866025 0.500001
vn 0.000000 0.866025 0.500001
vn 0.000000 0.866025 0.500001
vn 0.000000 -0.499999 0.866026
vn 0.000000 -0.499999 0.866026
vn 0.000000 -0.499999 0.866026
vn 0.000000 -0.499999 0.866026
vn 0.000000 -0.866025 -0.500000
vn 0.000000 -0.866025 -0.500000
vn 0.000000 -0.866025 -0.500000
vn 0.000000 -0.866025 -0.500000
vn 0.000000 0.866025 0.500001
vn 0.000000 0.866025 0.500001
vn 0.000000 0.866025 0.500001
vn 0.000000 0.866025 0.500001
vn 0.000000 -0.499999 0.866026
vn 0.000000 -0.499999 0.866026
vn 0.000000 -0.499999 0.866026
vn 0.000000 -0.499999 0.866026
vn 0.000000 -0.866025 -0.500000
vn 0.000000 -0.866025 -0.500000
vn 0.000000 -0.866025 -0.500000
vn 0.000000 -0.866025 -0.500000
vn 0.000000 0.866025 0.500001
vn 0.000000 0.866025 0.500001
vn 0.000000 0.866025 0.500001
vn 0.000000 0.866025 0.500001
vn 0.000000 -0.499999 0.866026
vn 0.000000 -0.499999 0.866026
vn 0.000000 -0.499999 0.866026
vn 0.000000 -0.499999 0.866026
vn 0.000000 -0.866025 -0.500000
vn 0.000000 -0.866025 -0.500000
vn 0.000000 -0.866025 -0.500000
vn 0.000000 -0.866025 -0.500000
vn 0.000000 1.000000 0.000000
vn 0.000000 1.000000 0.000000
vn 0.000000 1.000000 0.000000
vn 0.000000 1.000000 0.000000
vn 0.000000 0.000000 1.000000
vn 0.000000 0.000000 1.000000
vn 0.000000 0.000000 1.000000
vn 0.000000 0.000000 1.000000
vn 0.000000 -1.000000 0.000000
vn 0.000000 -1.000000 0.000000
vn 0.000000 -1.000000 0.000000
vn 0.000000 -1.000000 0.000000
vn -1.000000 0.000000 0.000000
vn -1.000000 0.000000 0.000000
vn -1.000000 0.000000 0.000000
vn -1.000000 0.000000 0.000000
vn 1.000000 0.000000 0.000000
vn 1.000000 0.000000 0.000000
vn 1.000000 0.000000 0.000000
vn 1.000000 0.000000 0.000000
vn 0.000000 1.000000 0.000000
vn 0.000000 1.000000 0.000000
vn 0.000000 1.000000 0.000000
vn 0.000000 1.000000 0.000000
vn 0.000000 0.000000 1.000000
vn 0.000000 0.000000 1.000000
vn 0.000000 0.000000 1.000000
vn 0.000000 0.000000 1.000000
vn 0.000000 -1.000000 0.000000
vn 0.000000 -1.000000 0.000000
vn 0.000000 -1.000000 0.000000
vn 0.000000 -1.000000 0.000000
vn -1.000000 0.000000 0.000000
vn -1.000000 0.000000 0.000000
vn -1.000000 0.000000 0.000000
vn -1.000000 0.000000 0.000000
vn 1.000000 0.000000 0.000000
vn 1.000000 0.000000 0.000000
vn 1.000000 0.000000 0.000000
vn 1.000000 0.000000 0.000000
s off
g Vent
usemtl Vent_low:initialShadingGroup
f 1/1/1 2/2/2 4/3/3 3/4/4
f 3/4/5 4/3/6 6/5/7 5/6/8
f 5/6/9 6/5/10 8/7/11 7/8/12
f 2/9/13 8/10/14 6/5/15 4/3/16
f 7/11/17 1/12/18 3/4/19 5/6/20
f 9/13/21 10/14/22 12/15/23 11/16/24
f 11/16/25 12/15/26 14/17/27 13/18/28
f 13/18/29 14/17/30 16/19/31 15/20/32
f 17/21/33 18/22/34 20/23/35 19/24/36
f 19/24/37 20/23/38 22/25/39 21/26/40
f 21/26/41 22/25/42 24/27/43 23/28/44
f 18/29/45 24/30/46 22/25/47 20/23/48
f 23/31/49 17/32/50 19/24/51 21/26/52
f 25/33/53 26/34/54 28/35/55 27/36/56
f 27/36/57 28/35/58 30/37/59 29/38/60
f 29/38/61 30/37/62 32/39/63 31/40/64
f 33/41/65 34/42/66 36/43/67 35/44/68
f 35/44/69 36/43/70 38/45/71 37/46/72
f 37/46/73 38/45/74 40/47/75 39/48/76
f 41/49/77 42/50/78 44/51/79 43/52/80
f 43/52/81 44/51/82 46/53/83 45/54/84
f 45/54/85 46/53/86 48/55/87 47/56/88
f 49/57/89 50/58/90 52/59/91 51/60/92
f 51/60/93 52/59/94 54/61/95 53/62/96
f 53/62/97 54/61/98 56/63/99 55/64/100
f 57/65/101 58/66/102 60/67/103 59/68/104
f 59/68/105 60/67/106 62/69/107 61/70/108
f 61/70/109 62/69/110 64/71/111 63/72/112
f 65/73/113 66/74/114 68/75/115 67/76/116
f 67/76/117 68/75/118 70/77/119 69/78/120
f 69/78/121 70/77/122 72/79/123 71/80/124
f 73/81/125 74/82/126 76/83/127 75/84/128
f 75/84/129 76/83/130 78/85/131 77/86/132
f 77/86/133 78/85/134 80/87/135 79/88/136
f 81/89/137 82/90/138 84/91/139 83/92/140
f 83/92/141 84/91/142 86/93/143 85/94/144
f 85/94/145 86/93/146 88/95/147 87/96/148
f 89/97/149 90/98/150 92/99/151 91/100/152
f 91/100/153 92/99/154 94/101/155 93/102/156
f 93/102/157 94/101/158 96/103/159 95/104/160
f 97/105/161 98/106/162 100/107/163 99/108/164
f 99/108/165 100/107/166 102/109/167 101/110/168
f 101/110/169 102/109/170 104/111/171 103/112/172
f 105/113/173 106/114/174 108/115/175 107/116/176
f 107/116/177 108/115/178 110/117/179 109/118/180
f 109/118/181 110/117/182 112/119/183 111/120/184
f 113/121/185 114/122/186 116/123/187 115/124/188
f 115/124/189 116/123/190 118/125/191 117/126/192
f 117/126/193 118/125/194 120/127/195 119/128/196
f 114/129/197 120/130/198 118/125/199 116/123/200
f 119/131/201 113/132/202 115/124/203 117/126/204
f 121/133/205 122/134/206 124/135/207 123/136/208
f 123/136/209 124/135/210 126/137/211 125/138/212
f 125/138/213 126/137/214 128/139/215 127/140/216
f 122/141/217 128/142/218 126/137/219 124/135/220
f 127/143/221 121/144/222 123/136/223 125/138/224
