# This file uses meters as units for non-parametric coordinates.

mtllib verbindung.mtl
g default
v 844.785339 -51.295280 -2385.851563
v 744.785339 -51.295280 -2385.851563
v 844.785339 239.254440 -2385.851563
v 744.785339 239.254440 -2385.851563
v 844.785339 239.254440 -2335.851563
v 744.785339 239.254440 -2335.851563
v 844.785339 -51.295280 -2335.851563
v 744.785339 -51.295280 -2335.851563
v 844.785339 339.346161 -2287.219727
v 744.785339 339.346161 -2287.219727
v 744.785339 289.346161 -2287.219727
v 844.785339 289.346161 -2287.219727
v 844.785339 339.346161 -2093.523438
v 744.785339 339.346161 -2093.523438
v 744.785339 289.346161 -2093.523438
v 844.785339 289.346161 -2093.523438
v 744.785339 -51.295280 -1801.195679
v 844.785339 -51.295280 -1801.195679
v 744.785339 239.254440 -1801.195679
v 844.785339 239.254440 -1801.195679
v 744.785339 239.254440 -1851.195679
v 844.785339 239.254440 -1851.195679
v 744.785339 -51.295280 -1851.195679
v 844.785339 -51.295280 -1851.195679
v 744.785339 339.346161 -1899.827515
v 844.785339 339.346161 -1899.827515
v 844.785339 289.346161 -1899.827515
v 744.785339 289.346161 -1899.827515
vt 0.941548 0.805094
vt 0.100126 0.554443
vt 0.100126 0.153986
vt 0.200252 0.153986
vt 0.000000 0.153986
vt 0.885134 0.803438
vt 0.300378 0.153986
vt 0.300377 0.444901
vt 0.619499 0.538786
vt 0.669562 0.538786
vt 0.519373 0.538786
vt 0.841857 0.707169
vt 0.619499 0.150906
vt 0.669562 0.150906
vt 0.519373 0.150906
vt 0.469311 0.150906
vt 0.000000 0.444901
vt 0.100126 0.444901
vt 0.941007 0.905219
vt 0.200252 0.444901
vt 0.469311 0.538786
vt 0.891919 0.707439
vt 0.100126 0.444901
vt 0.690111 0.698459
vt 0.000000 0.554443
vt 0.000000 0.444901
vt 0.785037 0.801009
vt 0.688897 0.748507
vt 0.200252 0.444901
vt 0.100126 0.444901
vt 0.100126 0.153986
vt 0.200252 0.153986
vt 0.000000 0.153986
vt 0.000000 0.444901
vt 0.300378 0.153986
vt 0.300377 0.444901
vt 0.885134 0.803438
vt 0.785037 0.801009
vt 0.688897 0.748507
vt 0.690111 0.698459
vt 0.100126 0.554443
vt 0.000000 0.554443
vt 0.000000 0.444901
vt 0.100126 0.444901
vt 0.941548 0.805094
vt 0.941007 0.905219
vt 0.841857 0.707169
vt 0.891919 0.707439
vt 0.669562 0.538786
vt 0.619499 0.538786
vt 0.619499 0.150906
vt 0.669562 0.150906
vt 0.519373 0.538786
vt 0.519373 0.150906
vt 0.469311 0.538786
vt 0.469311 0.150906
vn 0.000000 0.000000 1.000000
vn 0.000000 0.000000 1.000000
vn 0.000000 0.000000 1.000000
vn 0.000000 0.000000 1.000000
vn -1.000000 0.000000 0.000000
vn -1.000000 0.000000 0.000000
vn -1.000000 0.000000 0.000000
vn -1.000000 0.000000 0.000000
vn 1.000000 0.000000 0.000000
vn 1.000000 0.000000 0.000000
vn 1.000000 0.000000 0.000000
vn 1.000000 0.000000 0.000000
vn -1.000000 0.000000 0.000000
vn -1.000000 0.000000 0.000000
vn 0.000000 -0.696574 0.717485
vn 0.000000 -0.696574 0.717485
vn 0.000000 -0.696574 0.717485
vn 0.000000 -0.696574 0.717485
vn 1.000000 0.000000 0.000000
vn 1.000000 0.000000 0.000000
vn -1.000000 0.000000 0.000000
vn -1.000000 0.000000 0.000000
vn 0.000000 -1.000000 0.000000
vn 0.000000 -1.000000 0.000000
vn 0.000000 -1.000000 0.000000
vn 0.000000 -1.000000 0.000000
vn 1.000000 0.000000 0.000000
vn 1.000000 0.000000 0.000000
vn 0.000000 0.000000 -1.000000
vn 0.000000 0.000000 -1.000000
vn 0.000000 0.000000 -1.000000
vn 0.000000 0.000000 -1.000000
vn 1.000000 0.000000 0.000000
vn 1.000000 0.000000 0.000000
vn 1.000000 0.000000 0.000000
vn 1.000000 0.000000 0.000000
vn -1.000000 0.000000 0.000000
vn -1.000000 0.000000 0.000000
vn -1.000000 0.000000 0.000000
vn -1.000000 0.000000 0.000000
vn 1.000000 0.000000 0.000000
vn 1.000000 0.000000 0.000000
vn 0.000000 -0.696574 -0.717485
vn 0.000000 -0.696574 -0.717485
vn 0.000000 -0.696574 -0.717485
vn 0.000000 -0.696574 -0.717485
vn -1.000000 0.000000 0.000000
vn -1.000000 0.000000 0.000000
vn 1.000000 0.000000 0.000000
vn 1.000000 0.000000 0.000000
vn 0.000000 -1.000000 0.000000
vn 0.000000 -1.000000 0.000000
vn 0.000000 -1.000000 0.000000
vn 0.000000 -1.000000 0.000000
vn -1.000000 0.000000 0.000000
vn -1.000000 0.000000 0.000000
s off
g pCube29 Details_copy
usemtl initialShadingGroup
f 5/20/1 6/18/2 8/3/3 7/4/4
s 1
f 2/5/5 8/3/6 6/18/7 4/17/8
s 2
f 7/4/9 1/7/10 3/8/11 5/20/12
s 1
f 4/6/8 6/27/7 11/28/13 10/24/14
s off
f 6/2/15 5/25/16 12/26/17 11/23/18
s 2
f 5/1/12 3/19/11 9/12/19 12/22/20
s 1
f 10/10/14 11/9/13 15/13/21 14/14/22
s off
f 11/9/23 12/11/24 16/15/25 15/13/26
s 2
f 12/11/20 9/21/19 13/16/27 16/15/28
s off
f 21/29/29 22/30/30 24/31/31 23/32/32
s 3
f 18/33/33 24/31/34 22/30/35 20/34/36
s 4
f 23/32/37 17/35/38 19/36/39 21/29/40
s 3
f 20/37/36 22/38/35 27/39/41 26/40/42
s off
f 22/41/43 21/42/44 28/43/45 27/44/46
s 4
f 21/45/40 19/46/39 25/47/47 28/48/48
s 3
f 26/49/42 27/50/41 16/51/49 13/52/50
s off
f 27/50/51 28/53/52 15/54/53 16/51/54
s 4
f 28/53/48 25/55/47 14/56/55 15/54/56
