# This file uses centimeters as units for non-parametric coordinates.

mtllib beaker_LP.mtl
g default
v -1.899000 0.005846 -0.570508
v -2.355644 0.005846 -0.759656
v -2.812288 0.005846 -0.570508
v -3.001436 0.005846 -0.113864
v -2.812288 0.005846 0.342780
v -2.355644 0.005846 0.531928
v -1.899000 0.005846 0.342780
v -1.709852 0.005846 -0.113864
v -1.899000 1.696070 -0.570508
v -2.355644 1.696070 -0.759656
v -2.812288 1.696070 -0.570508
v -3.001436 1.696070 -0.113864
v -2.812288 1.696070 0.342780
v -2.355644 1.696070 0.531928
v -1.775060 1.696070 0.450567
v -1.709852 1.696070 -0.113864
v -2.355644 0.005846 -0.113864
v -2.355644 1.696070 -0.699840
v -1.941297 1.696070 -0.528211
v -1.769669 1.696070 -0.113864
v -1.845650 1.696070 0.379977
v -2.355644 1.696070 0.472112
v -2.769992 1.696070 0.300484
v -2.941620 1.696070 -0.113864
v -2.769992 1.696070 -0.528211
v -2.355644 0.061578 -0.643824
v -1.980906 0.061578 -0.488603
v -2.355644 0.061578 -0.113864
v -1.825684 0.061578 -0.113864
v -1.980906 0.061578 0.260875
v -2.355644 0.061578 0.416097
v -2.730383 0.061578 0.260875
v -2.885605 0.061578 -0.113864
v -2.730383 0.061578 -0.488602
v -1.854215 0.005846 0.234658
v -1.798087 1.696070 0.194046
v -1.875601 1.696070 0.140170
v -1.944153 0.061578 0.172146
v -2.003175 0.005846 0.385931
v -2.046693 1.696070 0.446511
v -2.101180 1.696070 0.369251
v -2.066395 0.061578 0.296286
v -1.854215 1.528591 0.234658
v -1.899000 1.368034 0.342780
v -2.003175 1.528591 0.385931
v -2.355644 1.528591 0.531928
v -2.812288 1.528591 0.342780
v -3.001436 1.528591 -0.113864
v -2.812288 1.528591 -0.570508
v -2.355644 1.528591 -0.759656
v -1.899000 1.528591 -0.570508
v -1.709852 1.528591 -0.113864
v -1.946307 1.416337 0.295474
v -2.039689 1.539178 0.334155
v -2.355644 1.539178 0.465028
v -2.764982 1.539178 0.295474
v -2.934535 1.539178 -0.113864
v -2.764982 1.539178 -0.523202
v -2.355644 1.539178 -0.692755
v -1.946307 1.539178 -0.523202
v -1.776753 1.539178 -0.113864
v -1.906161 1.539178 0.198553
vt 0.107683 0.824778
vt 0.133302 0.878987
vt 0.316973 0.523187
vt 0.316973 0.590024
vt 0.187336 0.901365
vt 0.316973 0.456672
vt 0.241356 0.879048
vt 0.316973 0.390160
vt 0.267004 0.824924
vt 0.316973 0.323331
vt 0.249097 0.765889
vt 0.316973 0.256568
vt 0.111179 0.209037
vt 0.316973 0.209037
vt 0.111179 0.183090
vt 0.111179 0.704064
vt 0.316973 0.704064
vt 0.295548 0.183090
vt 0.111179 0.656852
vt 0.316973 0.656852
vt 0.187336 0.821154
vt 0.341107 0.590024
vt 0.341107 0.523187
vt 0.599351 0.507461
vt 0.599351 0.450229
vt 0.341107 0.456672
vt 0.599351 0.564808
vt 0.341107 0.390160
vt 0.599351 0.622158
vt 0.341107 0.323331
vt 0.599351 0.679402
vt 0.341107 0.256568
vt 0.887533 0.441950
vt 0.341107 0.209037
vt 0.599351 0.763144
vt 0.341107 0.183090
vt 0.341107 0.704064
vt 0.599351 0.366232
vt 0.887533 0.857124
vt 0.341107 0.656852
vt 0.599351 0.393253
vt 0.385666 0.450228
vt 0.385666 0.507461
vt 0.657363 0.928533
vt 0.385666 0.393253
vt 0.385666 0.790475
vt 0.385666 0.349997
vt 0.385666 0.736382
vt 0.385666 0.780105
vt 0.385666 0.679402
vt 0.385666 0.622158
vt 0.385666 0.564808
vt 0.577391 0.507461
vt 0.577391 0.450229
vt 0.577391 0.393253
vt 0.577391 0.349997
vt 0.577391 0.339793
vt 0.577391 0.780105
vt 0.577391 0.736382
vt 0.577391 0.679402
vt 0.577391 0.622158
vt 0.577391 0.564808
vt 0.577391 0.790475
vt 0.726450 0.925345
vt 0.385666 0.339793
vt 0.295437 0.729270
vt 0.878046 0.363990
vt 0.878046 0.867810
vt 0.341107 0.729270
vt 0.721472 0.914002
vt 0.701567 0.876877
vt 0.887533 0.403404
vt 0.599351 0.736382
vt 0.878046 0.403404
vt 0.721168 0.937431
vt 0.887533 0.825945
vt 0.887533 0.372549
vt 0.599351 0.790475
vt 0.604571 0.339793
vt 0.878046 0.832550
vt 0.878046 0.791102
vt 0.125737 0.765684
vt 0.587590 0.930261
vt 0.607777 0.978331
vt 0.606264 0.882144
vt 0.652373 0.860134
vt 0.707096 0.975932
vt 0.657363 0.997678
vt 0.887533 0.616053
vt 0.887533 0.673837
vt 0.887533 0.558335
vt 0.887533 0.500686
vt 0.887533 0.791102
vt 0.887533 0.731737
vt 0.111179 0.729270
vt 0.878046 0.731737
vt 0.878046 0.441950
vt 0.878046 0.500686
vt 0.878046 0.558335
vt 0.878046 0.616053
vt 0.878046 0.673837
vt 0.111179 0.590024
vt 0.111179 0.256568
vt 0.111179 0.323331
vt 0.111179 0.390160
vt 0.111179 0.456672
vt 0.111179 0.523187
vt 0.208094 0.740739
vt 0.187483 0.733790
vt 0.166386 0.741046
vn 0.382683 0.000000 -0.923880
vn 0.382683 0.000000 -0.923880
vn 0.382683 0.000000 -0.923880
vn 0.382683 0.000000 -0.923880
vn -0.382683 0.000000 -0.923880
vn -0.382683 0.000000 -0.923880
vn -0.382683 0.000000 -0.923880
vn -0.382683 0.000000 -0.923880
vn -0.923880 0.000000 -0.382683
vn -0.923880 0.000000 -0.382683
vn -0.923880 0.000000 -0.382683
vn -0.923880 0.000000 -0.382683
vn -0.923880 0.000000 0.382683
vn -0.923880 0.000000 0.382683
vn -0.923880 0.000000 0.382683
vn -0.923880 0.000000 0.382683
vn -0.382683 0.000000 0.923880
vn -0.382683 0.000000 0.923880
vn -0.382683 0.000000 0.923880
vn -0.382683 0.000000 0.923880
vn 0.382683 0.000000 0.923880
vn 0.382683 0.000000 0.923880
vn 0.382683 0.000000 0.923880
vn 0.382683 0.000000 0.923880
vn 0.923879 0.000000 0.382685
vn 0.923879 0.000000 0.382685
vn 0.923879 0.000000 0.382685
vn 0.923879 0.000000 0.382685
vn 0.923879 0.000000 -0.382684
vn 0.923879 0.000000 -0.382684
vn 0.923879 0.000000 -0.382684
vn 0.923879 0.000000 -0.382684
vn 0.000000 -1.000000 0.000000
vn 0.000000 -1.000000 0.000000
vn 0.000000 -1.000000 0.000000
vn 0.000000 -1.000000 0.000000
vn 0.000000 -1.000000 0.000000
vn 0.000000 -1.000000 0.000000
vn 0.000000 -1.000000 0.000000
vn 0.000000 -1.000000 0.000000
vn 0.000000 -1.000000 0.000000
vn 0.000000 -1.000000 0.000000
vn 0.000000 -1.000000 0.000000
vn 0.000000 -1.000000 0.000000
vn 0.000000 -1.000000 0.000000
vn 0.000000 -1.000000 0.000000
vn 0.000000 -1.000000 0.000000
vn 0.000000 -1.000000 0.000000
vn 0.000000 -1.000000 0.000000
vn 0.000000 -1.000000 0.000000
vn 0.000000 -1.000000 0.000000
vn 0.000000 -1.000000 0.000000
vn 0.000000 -1.000000 0.000000
vn 0.000000 -1.000000 0.000000
vn 0.000000 -1.000000 0.000000
vn 0.000000 -1.000000 0.000000
vn 0.000000 -1.000000 0.000000
vn 0.000000 -1.000000 0.000000
vn 0.000000 1.000000 -0.000000
vn 0.000000 1.000000 -0.000000
vn 0.000000 1.000000 -0.000000
vn 0.000000 1.000000 -0.000000
vn 0.000000 1.000000 0.000000
vn 0.000000 1.000000 0.000000
vn 0.000000 1.000000 0.000000
vn 0.000000 1.000000 0.000000
vn 0.000000 1.000000 0.000000
vn 0.000000 1.000000 0.000000
vn 0.000000 1.000000 0.000000
vn 0.000000 1.000000 0.000000
vn 0.000000 1.000000 0.000000
vn 0.000000 1.000000 0.000000
vn 0.000000 1.000000 0.000000
vn 0.000000 1.000000 0.000000
vn 0.000000 1.000000 0.000000
vn 0.000000 1.000000 0.000000
vn 0.000000 1.000000 0.000000
vn 0.000000 1.000000 0.000000
vn 0.000000 1.000000 0.000000
vn 0.000000 1.000000 0.000000
vn 0.000000 1.000000 0.000000
vn 0.000000 1.000000 0.000000
vn 0.000000 1.000000 0.000000
vn 0.000000 1.000000 0.000000
vn 0.000000 1.000000 0.000000
vn 0.000000 1.000000 0.000000
vn 0.000000 1.000000 -0.000000
vn 0.000000 1.000000 -0.000000
vn 0.000000 1.000000 -0.000000
vn 0.000000 1.000000 -0.000000
vn 0.000000 1.000000 0.000000
vn 0.000000 1.000000 0.000000
vn 0.000000 1.000000 0.000000
vn 0.000000 1.000000 0.000000
vn 0.000000 1.000000 0.000000
vn 0.000000 1.000000 0.000000
vn 0.000000 1.000000 0.000000
vn 0.000000 1.000000 0.000000
vn 0.000000 1.000000 0.000000
vn 0.000000 1.000000 0.000000
vn -0.000000 1.000000 0.000000
vn -0.000000 1.000000 0.000000
vn -0.000000 1.000000 0.000000
vn -0.000000 1.000000 0.000000
vn -0.000000 1.000000 0.000001
vn -0.000000 1.000000 0.000001
vn -0.000000 1.000000 0.000001
vn 0.000000 1.000000 0.000001
vn 0.000000 1.000000 0.000001
vn 0.000000 1.000000 0.000001
vn 0.000000 1.000000 -0.000000
vn 0.000000 1.000000 -0.000000
vn 0.000000 1.000000 -0.000000
vn 0.000000 1.000000 0.000000
vn 0.000000 1.000000 0.000000
vn 0.000000 1.000000 0.000000
vn -0.382351 0.041683 0.923077
vn -0.382351 0.041683 0.923077
vn -0.382351 0.041683 0.923077
vn -0.382351 0.041683 0.923077
vn -0.923077 0.041683 0.382351
vn -0.923077 0.041683 0.382351
vn -0.923077 0.041683 0.382351
vn -0.923077 0.041683 0.382351
vn -0.956259 0.282936 0.074263
vn -0.956259 0.282936 0.074263
vn -0.956259 0.282936 0.074263
vn -0.956259 0.282936 0.074263
vn -0.378687 0.050025 -0.924172
vn -0.378687 0.050025 -0.924172
vn -0.378687 0.050025 -0.924172
vn -0.378687 0.050025 -0.924172
vn 0.382352 0.041683 -0.923076
vn 0.382352 0.041683 -0.923076
vn 0.382352 0.041683 -0.923076
vn 0.382352 0.041683 -0.923076
vn 0.923076 0.041682 -0.382351
vn 0.923076 0.041682 -0.382351
vn 0.923076 0.041682 -0.382351
vn 0.923076 0.041682 -0.382351
vn 0.923077 0.041683 0.382351
vn 0.923077 0.041683 0.382351
vn 0.923077 0.041683 0.382351
vn 0.923077 0.041683 0.382351
vn 0.382351 0.041683 0.923076
vn 0.382351 0.041683 0.923077
vn 0.382351 0.041683 0.923076
vn 0.382351 0.041683 0.923076
vn 0.923879 0.000000 0.382684
vn 0.923879 0.000000 0.382684
vn 0.923879 0.000000 0.382684
vn 0.923879 0.000000 0.382684
vn 0.000000 1.000000 -0.000000
vn 0.000000 1.000000 -0.000000
vn 0.000000 1.000000 -0.000000
vn 0.000000 1.000000 -0.000000
vn -0.922755 0.039371 -0.383371
vn -0.922755 0.039371 -0.383371
vn -0.922755 0.039371 -0.383371
vn -0.922755 0.039371 -0.383371
vn 0.382683 0.000000 0.923880
vn 0.382683 0.000000 0.923880
vn 0.382683 0.000000 0.923880
vn 0.382683 0.000000 0.923880
vn 0.000000 1.000000 0.000000
vn 0.000000 1.000000 0.000000
vn 0.000000 1.000000 0.000000
vn 0.000000 1.000000 0.000000
vn 0.015262 0.262882 -0.964707
vn 0.015262 0.262882 -0.964707
vn 0.015262 0.262882 -0.964707
vn 0.015262 0.262882 -0.964707
vn 0.939949 -0.329508 -0.088998
vn 0.939949 -0.329508 -0.088998
vn 0.939949 -0.329508 -0.088998
vn 0.939949 -0.329508 -0.088998
vn -0.036470 -0.316193 0.947994
vn -0.036470 -0.316193 0.947994
vn -0.036470 -0.316193 0.947994
vn -0.036470 -0.316193 0.947994
vn 0.327581 -0.126776 0.936279
vn 0.327581 -0.126776 0.936279
vn 0.327581 -0.126776 0.936279
vn 0.327581 -0.126776 0.936279
vn -0.382683 0.000000 0.923880
vn -0.382683 0.000000 0.923880
vn -0.382683 0.000000 0.923880
vn -0.382683 0.000000 0.923880
vn -0.923880 0.000000 0.382683
vn -0.923880 0.000000 0.382683
vn -0.923880 0.000000 0.382683
vn -0.923880 0.000000 0.382683
vn -0.923880 0.000000 -0.382683
vn -0.923880 0.000000 -0.382683
vn -0.923880 0.000000 -0.382683
vn -0.923880 0.000000 -0.382683
vn -0.382683 0.000000 -0.923880
vn -0.382683 0.000000 -0.923880
vn -0.382683 0.000000 -0.923880
vn -0.382683 0.000000 -0.923880
vn 0.382683 0.000000 -0.923880
vn 0.382683 0.000000 -0.923880
vn 0.382683 0.000000 -0.923880
vn 0.382683 0.000000 -0.923880
vn 0.923879 0.000000 -0.382684
vn 0.923879 0.000000 -0.382684
vn 0.923879 0.000000 -0.382684
vn 0.923879 0.000000 -0.382684
vn 0.936142 -0.116647 0.331710
vn 0.936142 -0.116647 0.331710
vn 0.936142 -0.116647 0.331710
vn 0.936142 -0.116647 0.331710
vn -0.363836 0.031693 -0.930924
vn -0.363836 0.031693 -0.930924
vn -0.363836 0.031693 -0.930924
vn -0.363836 0.031693 -0.930924
vn -0.382505 0.030580 -0.923447
vn -0.382505 0.030580 -0.923447
vn -0.382505 0.030580 -0.923447
vn -0.382505 0.030580 -0.923447
vn 0.382506 0.030580 -0.923447
vn 0.382506 0.030580 -0.923447
vn 0.382506 0.030580 -0.923447
vn 0.382506 0.030580 -0.923447
vn 0.923447 0.030580 -0.382505
vn 0.923447 0.030580 -0.382505
vn 0.923447 0.030580 -0.382505
vn 0.923447 0.030580 -0.382505
vn 0.923447 0.030580 0.382505
vn 0.923447 0.030580 0.382505
vn 0.923447 0.030580 0.382505
vn 0.923447 0.030580 0.382505
vn 0.382505 0.030580 0.923447
vn 0.382505 0.030580 0.923447
vn 0.382505 0.030580 0.923447
vn 0.382505 0.030580 0.923447
vn -0.382504 0.030580 0.923447
vn -0.382504 0.030580 0.923447
vn -0.382504 0.030580 0.923447
vn -0.382504 0.030580 0.923447
vn -0.923447 0.030580 0.382505
vn -0.923447 0.030580 0.382505
vn -0.923447 0.030580 0.382505
vn -0.923447 0.030580 0.382505
vn -0.923447 0.030580 -0.382505
vn -0.923447 0.030580 -0.382505
vn -0.923447 0.030580 -0.382505
vn -0.923447 0.030580 -0.382505
vn -0.930658 0.031703 -0.364513
vn -0.930658 0.031703 -0.364513
vn -0.930658 0.031703 -0.364513
vn -0.930658 0.031703 -0.364513
s off
g beaker
usemtl lambert3SG
f 1/102/1 2/107/2 50/3/3 51/4/4
f 2/107/5 3/106/6 49/6/7 50/3/8
f 3/106/9 4/105/10 48/8/11 49/6/12
f 4/105/13 5/104/14 47/10/15 48/8/16
f 5/104/17 6/103/18 46/12/19 47/10/20
f 6/103/21 39/13/22 45/14/23 46/12/24
f 7/95/25 35/16/26 43/17/27 44/66/28
f 8/19/29 1/102/30 51/4/31 52/20/32
f 2/2/33 1/1/34 17/21/35
f 3/5/36 2/2/37 17/21/38
f 4/7/39 3/5/40 17/21/41
f 5/9/42 4/7/43 17/21/44
f 6/11/45 5/9/46 17/21/47
f 7/109/48 39/108/49 6/11/50 17/21/51
f 8/82/52 35/110/53 7/109/54 17/21/55
f 1/1/56 8/82/57 17/21/58
f 9/96/59 10/101/60 18/90/61 19/94/62
f 10/101/63 11/100/64 25/89/65 18/90/66
f 11/100/67 12/99/68 24/91/69 25/89/70
f 12/99/71 13/98/72 23/92/73 24/91/74
f 13/98/75 14/97/76 22/33/77 23/92/78
f 14/97/79 40/74/80 41/72/81 22/33/82
f 15/68/83 36/80/84 37/76/85 21/39/86
f 16/81/87 9/96/88 19/94/89 20/93/90
f 27/88/91 26/84/92 28/44/93
f 29/87/94 27/88/95 28/44/96
f 30/64/97 38/75/98 29/87/99 28/44/100
f 31/71/101 42/70/102 30/64/103 28/44/104
f 32/86/105 31/71/106 28/44/107
f 33/85/108 32/86/109 28/44/110
f 34/83/111 33/85/112 28/44/113
f 26/84/114 34/83/115 28/44/116
f 19/25/117 18/24/118 59/53/119 60/54/120
f 20/41/121 19/25/122 60/54/123 61/55/124
f 21/79/125 37/38/126 62/56/127 53/57/128
f 22/73/129 41/35/130 54/58/131 55/59/132
f 23/31/133 22/73/134 55/59/135 56/60/136
f 24/29/137 23/31/138 56/60/139 57/61/140
f 25/27/141 24/29/142 57/61/143 58/62/144
f 18/24/145 25/27/146 58/62/147 59/53/148
f 35/16/149 8/19/150 52/20/151 43/17/152
f 37/76/153 36/80/154 16/81/155 20/93/156
f 62/56/157 37/38/158 20/41/159 61/55/160
f 39/13/161 7/15/162 44/18/163 45/14/164
f 41/72/165 40/74/166 15/67/167 21/77/168
f 54/58/169 41/35/170 21/78/171 53/63/172
f 44/66/173 43/17/174 36/37/175 15/69/176
f 45/14/177 44/18/178 15/36/179 40/34/180
f 46/12/181 45/14/182 40/34/183 14/32/184
f 47/10/185 46/12/186 14/32/187 13/30/188
f 48/8/189 47/10/190 13/30/191 12/28/192
f 49/6/193 48/8/194 12/28/195 11/26/196
f 50/3/197 49/6/198 11/26/199 10/23/200
f 51/4/201 50/3/202 10/23/203 9/22/204
f 52/20/205 51/4/206 9/22/207 16/40/208
f 43/17/209 52/20/210 16/40/211 36/37/212
f 42/49/213 54/58/214 53/63/215 30/46/216
f 55/59/217 54/58/218 42/49/219 31/48/220
f 56/60/221 55/59/222 31/48/223 32/50/224
f 57/61/225 56/60/226 32/50/227 33/51/228
f 58/62/229 57/61/230 33/51/231 34/52/232
f 59/53/233 58/62/234 34/52/235 26/43/236
f 60/54/237 59/53/238 26/43/239 27/42/240
f 61/55/241 60/54/242 27/42/243 29/45/244
f 38/47/245 62/56/246 61/55/247 29/45/248
f 53/57/249 62/56/250 38/47/251 30/65/252
