# This file uses meters as units for non-parametric coordinates.

mtllib Kasten.mtl
g default
v -655.602722 103.484695 50.000000
v -455.602722 103.484695 50.000000
v -655.602722 103.484695 -50.000000
v -455.602722 103.484695 -50.000000
v -655.602722 111.484894 50.000000
v -653.602905 113.484695 48.000198
v -457.602509 113.484695 48.000198
v -455.602722 111.484894 50.000000
v -653.602905 113.484695 -48.000198
v -655.602722 111.484894 -50.000000
v -457.602509 113.484695 -48.000198
v -455.602722 111.484894 -50.000000
v -655.587158 -7.611740 50.000000
v -455.587158 -7.611740 50.000000
v -655.587158 12.388260 50.000000
v -455.587158 12.388260 50.000000
v -655.587158 12.388260 -46.168190
v -455.587158 12.388260 -46.168190
v -655.587158 -7.611740 -46.168190
v -455.587158 -7.611740 -46.168190
v -555.587158 -7.611740 50.000000
v -555.587158 12.388260 -46.168190
v -555.587158 12.388260 50.000000
v -647.923462 12.388260 42.336300
v -563.250854 12.388260 42.336300
v -563.250854 12.388260 -46.168110
v -647.923462 12.388260 -46.168110
v -647.923462 112.194336 42.336300
v -563.250854 112.194336 42.336300
v -563.250854 112.194336 -46.168110
v -647.923462 112.194336 -46.168110
v -548.915649 12.388260 -46.168121
v -548.915649 12.388260 43.328465
v -462.258728 12.388260 43.328465
v -462.258728 12.388260 -46.168121
v -548.915649 112.065308 -46.168121
v -548.915649 112.065308 43.328465
v -462.258728 112.065308 43.328465
v -462.258728 112.065308 -46.168121
vt 0.001236 0.658558
vt 0.657994 0.683724
vt 0.684363 0.341458
vt 0.027646 0.316262
vt 0.025150 0.344031
vt 0.034065 0.350284
vt 0.035262 0.652139
vt 0.029007 0.661058
vt 0.656583 0.338968
vt 0.650330 0.347885
vt 0.660485 0.655965
vt 0.651566 0.649708
vt 0.685396 0.463680
vt 0.999818 0.313817
vt 0.999827 0.400799
vt 0.689357 0.634894
vt 0.992687 0.571884
vt 0.992687 0.634894
vt 0.685396 0.484661
vt 0.986700 0.484661
vt 0.685396 0.376703
vt 0.685396 0.547408
vt 0.544509 0.000000
vt 0.278277 0.000000
vt 0.846049 0.303481
vt 0.824059 0.303481
vt 0.000000 0.000000
vt 0.544509 0.313817
vt 0.278277 0.313817
vt 0.822787 0.313817
vt 0.000000 0.313817
vt 0.276589 0.001851
vt -0.001851 0.001851
vt 0.546199 0.001851
vt 0.992687 0.655536
vt 0.276589 0.311966
vt -0.001851 0.311966
vt 0.546199 0.311966
vt 0.824638 0.311966
vt 0.712253 0.655536
vt 0.824638 0.001851
vt 0.708256 0.484661
vt 0.868972 0.303481
vt 0.711479 0.400799
vt 0.685396 0.571884
vt 0.822787 0.000000
vt 0.824059 0.028528
vt 0.980716 0.484661
vt 0.846049 0.000000
vt 0.868972 0.017244
vt 0.977708 0.400799
vt 0.964638 0.571884
vt 0.999818 0.376703
vt 0.685396 0.400799
vt 0.689357 0.571884
vt 0.999827 0.463680
vt 0.685396 0.313817
vt 0.986700 0.547408
vt 0.190168 1.000000
vt 0.190168 0.685575
vt 0.819018 1.000000
vt 0.819018 0.685575
vt 0.029110 0.686213
vt 0.026394 0.658461
vt 0.657892 0.658573
vt 0.685640 0.655873
vt 0.027741 0.341417
vt 0.000000 0.344129
vt 0.656483 0.313817
vt 0.659199 0.341561
vn 0.000000 -1.000000 0.000000
vn 0.000000 -1.000000 0.000000
vn 0.000000 -1.000000 0.000000
vn 0.000000 -1.000000 0.000000
vn -0.707094 0.707120 0.000000
vn -0.707094 0.707120 0.000000
vn -0.707094 0.707120 0.000000
vn -0.707094 0.707120 0.000000
vn 0.000000 0.707107 0.707107
vn 0.000000 0.707107 0.707107
vn 0.000000 0.707107 0.707107
vn 0.000000 0.707107 0.707107
vn 0.707115 0.707099 0.000000
vn 0.707115 0.707099 0.000000
vn 0.707115 0.707099 0.000000
vn 0.707115 0.707099 0.000000
vn 0.000000 0.707107 -0.707107
vn 0.000000 0.707107 -0.707107
vn 0.000000 0.707107 -0.707107
vn 0.000000 0.707107 -0.707107
vn 0.000000 0.000000 1.000000
vn 0.000000 0.000000 1.000000
vn 0.000000 0.000000 1.000000
vn 0.000000 0.000000 1.000000
vn 0.000000 1.000000 0.000000
vn 0.000000 1.000000 0.000000
vn 0.000000 1.000000 0.000000
vn 0.000000 1.000000 0.000000
vn 0.000000 0.000000 -1.000000
vn 0.000000 0.000000 -1.000000
vn 0.000000 0.000000 -1.000000
vn 0.000000 0.000000 -1.000000
vn 1.000000 0.000000 0.000000
vn 1.000000 0.000000 0.000000
vn 1.000000 0.000000 0.000000
vn 1.000000 0.000000 0.000000
vn -1.000000 0.000000 0.000000
vn -1.000000 0.000000 0.000000
vn -1.000000 0.000000 0.000000
vn -1.000000 0.000000 0.000000
vn 0.000000 0.000000 1.000000
vn 0.000000 0.000000 1.000000
vn 0.000000 0.000000 1.000000
vn 0.000000 0.000000 1.000000
vn 1.000000 0.000000 0.000000
vn 1.000000 0.000000 0.000000
vn 1.000000 0.000000 0.000000
vn 1.000000 0.000000 0.000000
vn -1.000000 0.000000 0.000000
vn -1.000000 0.000000 0.000000
vn -1.000000 0.000000 0.000000
vn -1.000000 0.000000 0.000000
vn 0.000000 0.000000 1.000000
vn 0.000000 0.000000 1.000000
vn 0.000000 1.000000 0.000000
vn 0.000000 1.000000 0.000000
vn 0.000000 1.000000 0.000000
vn 0.000000 1.000000 0.000000
vn 0.000000 1.000000 0.000000
vn 0.000000 1.000000 0.000000
vn 0.000000 1.000000 0.000000
vn 0.000000 1.000000 0.000000
vn 0.000000 1.000000 0.000000
vn 0.000000 1.000000 0.000000
vn 0.000000 1.000000 0.000000
vn 0.000000 1.000000 0.000000
vn 0.000000 0.000000 1.000000
vn 0.000000 0.000000 1.000000
vn 0.000000 0.000000 1.000000
vn 0.000000 0.000000 1.000000
vn 1.000000 0.000000 0.000000
vn 1.000000 0.000000 0.000000
vn 1.000000 0.000000 0.000000
vn 1.000000 0.000000 0.000000
vn -1.000000 0.000000 0.000000
vn -1.000000 0.000000 0.000000
vn -1.000000 0.000000 0.000000
vn -1.000000 0.000000 0.000000
vn 0.000000 1.000000 0.000000
vn 0.000000 1.000000 0.000000
vn 0.000000 1.000000 0.000000
vn 0.000000 1.000000 0.000000
vn 0.000000 1.000000 0.000000
vn 0.000000 1.000000 0.000000
vn 0.000000 1.000000 0.000000
vn 0.000000 1.000000 0.000000
vn 0.000000 1.000000 0.000000
vn 0.000000 1.000000 0.000000
vn 0.000000 1.000000 0.000000
vn 0.000000 1.000000 0.000000
vn -1.000000 0.000000 0.000000
vn -1.000000 0.000000 0.000000
vn -1.000000 0.000000 0.000000
vn -1.000000 0.000000 0.000000
vn 0.000000 0.000000 1.000000
vn 0.000000 0.000000 1.000000
vn 0.000000 0.000000 1.000000
vn 0.000000 0.000000 1.000000
vn 1.000000 0.000000 0.000000
vn 1.000000 0.000000 0.000000
vn 1.000000 0.000000 0.000000
vn 1.000000 0.000000 0.000000
s off
g Kiste
usemtl initialShadingGroup
f 3/61/1 4/59/2 2/60/3 1/62/4
f 5/5/5 6/6/6 9/7/7 10/64/8
f 6/6/9 5/67/10 8/9/11 7/10/12
f 7/10/13 8/70/14 12/11/15 11/12/16
f 10/8/17 9/7/18 11/12/19 12/65/20
f 1/4/21 2/69/22 8/9/23 5/67/24
f 6/6/25 7/10/26 11/12/27 9/7/28
f 10/8/29 12/65/30 4/2/31 3/63/32
f 2/3/33 4/66/34 12/11/35 8/70/36
f 3/1/37 1/68/38 5/5/39 10/64/40
s 1
f 23/13/41 21/54/42 14/15/43 16/56/44
s off
f 14/55/45 20/17/46 18/18/47 16/16/48
f 19/19/49 13/20/50 15/58/51 17/22/52
s 1
f 13/57/53 21/14/42 23/53/41 15/21/54
s off
f 15/21/55 23/53/56 25/51/57 24/44/58
f 23/49/59 22/25/60 26/26/61 25/47/62
f 17/22/63 15/58/64 24/52/65 27/45/66
f 24/24/67 25/23/68 29/28/69 28/29/70
f 25/23/71 26/46/72 30/30/73 29/28/74
f 27/27/75 24/24/76 28/29/77 31/31/78
f 22/25/79 23/49/80 33/50/81 32/43/82
f 23/13/83 16/56/84 34/48/85 33/42/86
f 16/16/87 18/18/88 35/35/89 34/40/90
f 32/33/91 33/32/92 37/36/93 36/37/94
f 33/32/95 34/34/96 38/38/97 37/36/98
f 34/34/99 35/41/100 39/39/101 38/38/102
