# This file uses meters as units for non-parametric coordinates.

mtllib Kiste_Rund_test.mtl
g default
v 1184.672699 21.059929 -2110.943515
v 1184.672699 114.924800 -2110.943515
v 1199.298437 112.391826 -2136.276056
v 1197.836014 114.924800 -2133.742845
v 1170.047103 112.391826 -2136.276199
v 1171.509455 114.924800 -2133.743273
v 1155.421364 112.391826 -2110.943515
v 1158.346140 114.924800 -2110.943515
v 1170.047103 112.391826 -2085.611259
v 1171.509455 114.924800 -2088.144184
v 1199.298295 112.391826 -2085.611259
v 1197.835871 114.924800 -2088.144184
v 1213.923962 112.391826 -2110.943515
v 1210.999257 114.924800 -2110.943515
v 1197.836014 21.059929 -2133.742845
v 1199.298437 23.592911 -2136.276056
v 1171.509455 21.059929 -2133.743273
v 1170.047103 23.592911 -2136.276199
v 1158.346140 21.059929 -2110.943515
v 1155.421364 23.592911 -2110.943515
v 1171.509455 21.059929 -2088.144184
v 1170.047103 23.592911 -2085.611259
v 1197.835871 21.059929 -2088.144184
v 1199.298295 23.592911 -2085.611259
v 1210.999114 21.059929 -2110.943515
v 1213.923962 23.592911 -2110.943515
vt 0.829617 0.501534
vt 0.403685 0.701828
vt 0.309820 0.543510
vt 0.664826 0.501534
vt 0.994409 0.501534
vt 0.313507 0.862280
vt 0.170455 0.501534
vt 0.129454 0.864408
vt 0.335247 0.501534
vt 0.035593 0.706071
vt 0.500036 0.501534
vt 0.125784 0.545622
vt 0.219641 0.703953
vt 0.309812 0.543495
vt 0.829617 0.001280
vt 0.664826 0.001280
vt 0.403686 0.701811
vt 0.125764 0.545633
vt 0.005667 0.001280
vt 0.035599 0.706093
vt 0.170455 0.001280
vt 0.129472 0.864405
vt 0.335247 0.001280
vt 0.313515 0.862271
vt 0.500036 0.001280
vt 0.219641 0.703951
vt 0.430443 0.697832
vt 0.330338 0.883451
vt 0.119541 0.889567
vt 0.008842 0.710071
vt 0.108939 0.524451
vt 0.319745 0.518332
vt 0.108955 0.524450
vt 0.319763 0.518340
vt 0.008836 0.710049
vt 0.119526 0.889560
vt 0.330328 0.883466
vt 0.430443 0.697849
vt 0.994409 0.001280
vt 0.005667 0.501534
vt 0.324028 0.887192
vt 0.113146 0.885974
vt 0.008756 0.702736
vt 0.115249 0.520709
vt 0.430528 0.705167
vt 0.326139 0.521926
vt 0.115265 0.520706
vt 0.008753 0.702716
vt 0.113132 0.885969
vt 0.324015 0.887207
vt 0.326159 0.521936
vt 0.430532 0.705190
vn 0.612372 0.707108 -0.353551
vn 0.612372 0.707108 -0.353551
vn 0.612372 0.707108 -0.353551
vn 0.612372 0.707108 -0.353551
vn 0.000007 0.707120 -0.707094
vn 0.000007 0.707120 -0.707094
vn 0.000007 0.707120 -0.707094
vn 0.000007 0.707120 -0.707094
vn -0.612381 0.707098 -0.353556
vn -0.612381 0.707098 -0.353556
vn -0.612381 0.707098 -0.353556
vn -0.612381 0.707098 -0.353556
vn -0.612378 0.707098 0.353560
vn -0.612378 0.707098 0.353560
vn -0.612378 0.707098 0.353560
vn -0.612378 0.707098 0.353560
vn 0.000000 0.707100 0.707114
vn 0.000000 0.707100 0.707114
vn 0.000000 0.707100 0.707114
vn 0.000000 0.707100 0.707114
vn 0.612378 0.707098 0.353560
vn 0.612378 0.707098 0.353560
vn 0.612378 0.707098 0.353560
vn 0.612378 0.707098 0.353560
vn 0.000000 1.000000 0.000000
vn 0.000000 1.000000 0.000000
vn 0.000000 1.000000 0.000000
vn 0.000000 1.000000 0.000000
vn 0.000000 1.000000 0.000000
vn 0.000000 1.000000 0.000000
vn 0.000000 1.000000 0.000000
vn 0.612366 -0.707116 -0.353546
vn 0.612366 -0.707116 -0.353546
vn 0.612366 -0.707116 -0.353546
vn 0.612366 -0.707116 -0.353546
vn 0.000007 -0.707119 -0.707094
vn 0.000007 -0.707119 -0.707094
vn 0.000007 -0.707119 -0.707094
vn 0.000007 -0.707119 -0.707094
vn -0.612382 -0.707097 -0.353556
vn -0.612382 -0.707097 -0.353556
vn -0.612382 -0.707097 -0.353556
vn -0.612382 -0.707097 -0.353556
vn -0.612379 -0.707097 0.353561
vn -0.612379 -0.707097 0.353561
vn -0.612379 -0.707097 0.353561
vn -0.612379 -0.707097 0.353561
vn 0.000000 -0.707099 0.707115
vn 0.000000 -0.707099 0.707115
vn 0.000000 -0.707099 0.707115
vn 0.000000 -0.707099 0.707115
vn 0.612372 -0.707106 0.353555
vn 0.612372 -0.707106 0.353555
vn 0.612372 -0.707106 0.353555
vn 0.612372 -0.707106 0.353555
vn 0.000000 -1.000000 0.000000
vn 0.000000 -1.000000 0.000000
vn 0.000000 -1.000000 0.000000
vn 0.000000 -1.000000 0.000000
vn 0.000000 -1.000000 0.000000
vn 0.000000 -1.000000 0.000000
vn 0.000000 -1.000000 0.000000
vn 0.000005 0.000000 -1.000000
vn 0.000005 0.000000 -1.000000
vn 0.000005 0.000000 -1.000000
vn 0.000005 0.000000 -1.000000
vn -0.866027 0.000000 -0.499998
vn -0.866027 0.000000 -0.499998
vn -0.866027 0.000000 -0.499998
vn -0.866027 0.000000 -0.499998
vn -0.866023 0.000000 0.500004
vn -0.866023 0.000000 0.500004
vn -0.866023 0.000000 0.500004
vn -0.866023 0.000000 0.500004
vn 0.000000 0.000000 1.000000
vn 0.000000 0.000000 1.000000
vn 0.000000 0.000000 1.000000
vn 0.000000 0.000000 1.000000
vn 0.866024 0.000000 0.500002
vn 0.866024 0.000000 0.500002
vn 0.866024 0.000000 0.500002
vn 0.866024 0.000000 0.500002
vn 0.866029 0.000000 -0.499994
vn 0.866029 0.000000 -0.499994
vn 0.866029 0.000000 -0.499994
vn 0.866029 0.000000 -0.499994
s off
g pCylinder1
usemtl initialShadingGroup
f 3/38/1 4/2/2 14/3/3 13/51/4
f 4/2/5 3/52/6 5/37/7 6/6/8
f 6/6/9 5/50/10 7/36/11 8/8/12
f 8/8/13 7/49/14 9/35/15 10/10/16
f 10/10/17 9/48/18 11/33/19 12/12/20
f 12/12/21 11/47/22 13/34/23 14/3/24
s 1
f 4/2/25 6/6/26 2/13/27
f 6/6/26 8/8/28 2/13/27
f 8/8/28 10/10/29 2/13/27
f 10/10/29 12/12/30 2/13/27
f 12/12/30 14/3/31 2/13/27
f 14/3/31 4/2/25 2/13/27
s off
f 15/14/32 16/46/33 26/27/34 25/17/35
f 16/32/36 15/14/37 17/18/38 18/44/39
f 18/31/40 17/18/41 19/20/42 20/43/43
f 20/30/44 19/20/45 21/22/46 22/42/47
f 22/29/48 21/22/49 23/24/50 24/41/51
f 24/28/52 23/24/53 25/17/54 26/45/55
s 2
f 17/18/56 15/14/57 1/26/58
f 19/20/59 17/18/56 1/26/58
f 21/22/60 19/20/59 1/26/58
f 23/24/61 21/22/60 1/26/58
f 25/17/62 23/24/61 1/26/58
f 15/14/57 25/17/62 1/26/58
s off
f 16/15/63 18/39/64 5/5/65 3/1/66
f 18/19/67 20/21/68 7/7/69 5/40/70
f 20/21/71 22/23/72 9/9/73 7/7/74
f 22/23/75 24/25/76 11/11/77 9/9/78
f 24/25/79 26/16/80 13/4/81 11/11/82
f 26/16/83 16/15/84 3/1/85 13/4/86
