# This file uses meters as units for non-parametric coordinates.

mtllib Mini_Lamp.mtl
g default
v 194.626747 164.012348 370.490515
v 219.844117 164.012348 370.490515
v 190.576155 170.239583 373.017130
v 223.894709 170.239583 373.017130
v 190.576155 170.239583 259.368211
v 223.894709 170.239583 259.368211
v 194.626747 164.012348 261.894826
v 219.844117 164.012348 261.894826
v 189.895569 170.108634 373.500644
v 224.575295 170.108634 373.500644
v 224.575295 176.781321 373.500644
v 189.895569 176.781321 373.500644
v 224.575295 170.108634 258.884697
v 224.575295 176.781321 258.884697
v 189.895569 170.108634 258.884697
v 189.895569 176.781321 258.884697
vt 0.454318 0.632701
vt 0.415365 0.664223
vt 0.400731 0.669604
vt 0.452174 0.617260
vt 0.604697 0.795111
vt 0.553235 0.847461
vt 0.551095 0.832013
vt 0.590060 0.800493
vt 0.463100 0.617889
vt 0.399056 0.669723
vt 0.388746 0.678063
vt 0.444258 0.605330
vt 0.552810 0.849085
vt 0.561151 0.859396
vt 0.606373 0.794992
vt 0.616683 0.786651
vt 0.606397 0.805738
vt 0.614736 0.816048
vt 0.604719 0.805815
vt 0.542307 0.846814
vt 0.531997 0.855154
vt 0.542774 0.845201
vt 0.452599 0.615636
vt 0.473410 0.609548
vt 0.399038 0.658985
vt 0.390699 0.648681
vt 0.400715 0.658908
vt 0.462633 0.619502
vn 0.000000 -0.375968 0.926633
vn 0.000000 -0.375968 0.926633
vn 0.000000 -0.375968 0.926632
vn 0.000000 -0.375968 0.926632
vn 0.000000 -0.375968 -0.926632
vn 0.000000 -0.375968 -0.926632
vn 0.000000 -0.375968 -0.926633
vn 0.000000 -0.375968 -0.926633
vn 0.000000 -1.000000 0.000000
vn 0.000000 -1.000000 0.000000
vn 0.000000 -1.000000 0.000000
vn 0.000000 -1.000000 0.000000
vn 0.838266 -0.545262 0.000000
vn 0.838266 -0.545262 0.000000
vn 0.838266 -0.545262 0.000000
vn 0.838266 -0.545262 0.000000
vn -0.838266 -0.545262 0.000000
vn -0.838266 -0.545262 0.000000
vn -0.838266 -0.545262 0.000000
vn -0.838266 -0.545262 0.000000
vn 0.000000 0.000000 1.000000
vn 0.000000 0.000000 1.000000
vn 0.000000 0.000000 1.000000
vn 0.000000 0.000000 1.000000
vn 1.000000 0.000000 0.000000
vn 1.000000 0.000000 0.000000
vn 1.000000 0.000000 0.000000
vn 1.000000 0.000000 0.000000
vn 0.000000 0.000000 -1.000000
vn 0.000000 0.000000 -1.000000
vn 0.000000 0.000000 -1.000000
vn 0.000000 0.000000 -1.000000
vn -1.000000 -0.000000 0.000000
vn -1.000000 -0.000000 0.000000
vn -1.000000 -0.000000 0.000000
vn -1.000000 -0.000000 0.000000
vn 0.000000 -0.965228 -0.261410
vn 0.000000 -0.965228 -0.261410
vn 0.000000 -0.965228 -0.261410
vn 0.000000 -0.965228 -0.261410
vn -0.188941 -0.981988 0.000000
vn -0.188941 -0.981988 0.000000
vn -0.188941 -0.981989 0.000000
vn -0.188941 -0.981989 0.000000
vn 0.000000 -0.965228 0.261410
vn 0.000000 -0.965228 0.261410
vn 0.000000 -0.965228 0.261410
vn 0.000000 -0.965228 0.261410
vn 0.188941 -0.981988 0.000000
vn 0.188941 -0.981988 0.000000
vn 0.188941 -0.981988 0.000000
vn 0.188941 -0.981988 0.000000
s off
g pCube7
usemtl initialShadingGroup
f 1/1/1 2/2/2 4/27/3 3/4/4
f 5/19/5 6/6/6 8/7/7 7/8/8
f 7/8/9 8/7/10 2/2/11 1/1/12
f 2/2/13 8/7/14 6/22/15 4/3/16
f 7/8/17 1/1/18 3/28/19 5/5/20
f 9/23/21 10/25/22 11/26/23 12/12/24
f 10/10/25 13/20/26 14/21/27 11/11/28
f 13/13/29 15/17/30 16/18/31 14/14/32
f 15/15/33 9/9/34 12/24/35 16/16/36
f 3/4/37 4/27/38 10/25/39 9/23/40
f 4/3/41 6/22/42 13/20/43 10/10/44
f 6/6/45 5/19/46 15/17/47 13/13/48
f 5/5/49 3/28/50 9/9/51 15/15/52
