# This file uses centimeters as units for non-parametric coordinates.

mtllib stand_LP.mtl
g default
v 2.487911 0.050454 -0.028716
v 2.454753 0.050454 -0.028716
v 2.438174 0.050454 -0.000000
v 2.454753 0.050454 0.028716
v 2.487911 0.050454 0.028716
v 2.504490 0.050454 0.000000
v 2.487911 2.277143 -0.028716
v 2.454753 2.277143 -0.028716
v 2.438174 2.277143 -0.000000
v 2.454753 2.277143 0.028716
v 2.487911 2.277143 0.028716
v 2.504490 2.277143 0.000000
v 2.471332 2.277143 0.000000
v 2.260200 0.005003 0.404530
v 3.635870 0.005003 0.404530
v 2.324005 0.078693 0.404530
v 3.572067 0.078693 0.404530
v 2.324005 0.078693 -0.404530
v 3.572067 0.078693 -0.404530
v 2.260200 0.005003 -0.404530
v 3.635870 0.005003 -0.404530
vt 0.974908 0.704100
vt 0.979239 0.704100
vt 0.919544 0.458195
vt 0.917379 0.454445
vt 0.983570 0.704100
vt 0.917379 0.461945
vt 0.987901 0.704100
vt 0.913049 0.461945
vt 0.992233 0.704100
vt 0.910884 0.458195
vt 0.970576 0.704100
vt 0.913049 0.454445
vt 0.915214 0.458195
vt 0.574846 0.257918
vt 0.803785 0.121839
vt 0.397476 0.268219
vt 0.978692 0.350987
vt 0.476174 0.268219
vt 0.571943 0.284777
vt 0.476174 0.258737
vt 0.983066 0.227278
vt 0.395796 0.292700
vt 0.812904 0.350987
vt 0.582512 0.292700
vt 0.574846 0.268355
vt 0.966245 0.704100
vt 0.966245 0.994960
vt 0.992233 0.994960
vt 0.970576 0.994960
vt 0.974908 0.994960
vt 0.987901 0.994960
vt 0.983570 0.994960
vt 0.979239 0.994960
vt 0.399756 0.275098
vt 0.803785 0.227278
vt 0.386268 0.303724
vt 0.397476 0.258737
vt 0.580448 0.275098
vt 0.488214 0.257918
vt 0.592075 0.303724
vt 0.983066 0.121839
vt 0.812904 0.243514
vt 0.408012 0.284777
vt 0.978692 0.243514
vt 0.488214 0.268355
vn 0.000000 0.000000 -1.000000
vn 0.000000 0.000000 -1.000000
vn 0.000000 0.000000 -1.000000
vn 0.000000 0.000000 -1.000000
vn -0.866035 0.000000 -0.499983
vn -0.866035 0.000000 -0.499983
vn -0.866035 0.000000 -0.499983
vn -0.866035 0.000000 -0.499983
vn -0.866035 0.000000 0.499983
vn -0.866035 0.000000 0.499983
vn -0.866035 0.000000 0.499983
vn -0.866035 0.000000 0.499983
vn -0.000000 0.000000 1.000000
vn -0.000000 0.000000 1.000000
vn -0.000000 0.000000 1.000000
vn -0.000000 0.000000 1.000000
vn 0.866014 0.000000 0.500020
vn 0.866014 0.000000 0.500020
vn 0.866014 0.000000 0.500020
vn 0.866014 0.000000 0.500020
vn 0.866014 0.000000 -0.500020
vn 0.866014 0.000000 -0.500020
vn 0.866014 0.000000 -0.500020
vn 0.866014 0.000000 -0.500020
vn 0.000000 1.000000 0.000000
vn 0.000000 1.000000 0.000000
vn 0.000000 1.000000 0.000000
vn 0.000000 1.000000 0.000000
vn 0.000000 1.000000 0.000000
vn 0.000000 1.000000 0.000000
vn 0.000000 1.000000 0.000000
vn 0.000000 1.000000 0.000000
vn 0.000000 1.000000 0.000000
vn 0.000000 1.000000 0.000000
vn 0.000000 1.000000 0.000000
vn 0.000000 1.000000 0.000000
vn 0.000000 1.000000 0.000000
vn 0.000000 1.000000 0.000000
vn 0.000000 1.000000 0.000000
vn 0.000000 1.000000 0.000000
vn 0.000000 1.000000 0.000000
vn 0.000000 1.000000 0.000000
vn 0.000000 0.000000 1.000000
vn 0.000000 0.000000 1.000000
vn 0.000000 0.000000 1.000000
vn 0.000000 0.000000 1.000000
vn 0.000000 1.000000 0.000000
vn 0.000000 1.000000 0.000000
vn 0.000000 1.000000 0.000000
vn 0.000000 1.000000 0.000000
vn 0.000000 0.000000 -1.000000
vn 0.000000 0.000000 -1.000000
vn 0.000000 0.000000 -1.000000
vn 0.000000 0.000000 -1.000000
vn 0.000000 -1.000000 0.000000
vn 0.000000 -1.000000 0.000000
vn 0.000000 -1.000000 0.000000
vn 0.000000 -1.000000 0.000000
vn 0.756000 0.654572 0.000000
vn 0.756000 0.654572 0.000000
vn 0.756000 0.654572 0.000000
vn 0.756000 0.654572 0.000000
vn -0.755993 0.654580 0.000000
vn -0.755993 0.654580 0.000000
vn -0.755993 0.654580 0.000000
vn -0.755993 0.654580 0.000000
s off
g stand
usemtl lambert5SG
f 1/1/1 2/2/2 8/33/3 7/30/4
f 2/2/5 3/5/6 9/32/7 8/33/8
f 3/5/9 4/7/10 10/31/11 9/32/12
f 4/7/13 5/9/14 11/28/15 10/31/16
f 5/26/17 6/11/18 12/29/19 11/27/20
f 6/11/21 1/1/22 7/30/23 12/29/24
f 7/4/25 8/3/26 13/13/27
f 8/3/28 9/6/29 13/13/30
f 9/6/31 10/8/32 13/13/33
f 10/8/34 11/10/35 13/13/36
f 11/10/37 12/12/38 13/13/39
f 12/12/40 7/4/41 13/13/42
f 14/40/43 15/36/44 17/22/45 16/24/46
f 16/17/47 17/23/48 19/42/49 18/44/50
f 18/19/51 19/43/52 21/34/53 20/38/54
f 20/21/55 21/35/56 15/15/57 14/41/58
f 15/37/59 21/20/60 19/18/61 17/16/62
f 20/39/63 14/14/64 16/25/65 18/45/66
